<?xml version="1.0" encoding="UTF-8"?>
<svg width="110px" height="71px" viewBox="0 0 110 71" version="1.1" xmlns="http://www.w3.org/2000/svg" xmlns:xlink="http://www.w3.org/1999/xlink">
    <!-- Generator: Sketch 64 (93537) - https://sketch.com -->
    <title>Group</title>
    <desc>Created with Sketch.</desc>
    <defs>
        <polygon id="path-1" points="0 0.0345552501 73.9966429 0.0345552501 73.9966429 70.8204217 0 70.8204217"></polygon>
        <polygon id="path-3" points="0 0.0138221001 29.5986571 0.0138221001 29.5986571 28.3281687 0 28.3281687"></polygon>
        <polygon id="path-5" points="0 0.00691105003 14.7993286 0.00691105003 14.7993286 14.1640843 0 14.1640843"></polygon>
    </defs>
    <g id="Design-" stroke="none" stroke-width="1" fill="none" fill-rule="evenodd">
        <g id="COVID-Alert" transform="translate(-60.000000, -14.000000)">
            <g id="Alert-2">
                <g id="Group" transform="translate(60.000000, 14.000000)">
                    <g id="covid-virus" transform="translate(36.000000, 0.000000)">
                        <path d="M60.4774798,50.0320657 C60.9553938,50.3563312 61.3666611,50.7689849 61.7558833,51.1980847 C62.0863426,51.5623765 62.0995551,52.0826432 62.4066552,52.4909413 C62.6024342,52.7512249 62.8831092,52.9616445 63.2014509,52.9951374 C63.4628546,53.0225475 63.7219954,52.9301041 63.9609889,52.817685 C64.1244301,52.7407865 64.2884553,52.6496948 64.3994843,52.5042334 C64.7781948,52.0078473 65.3239964,51.1808126 64.7520618,50.5962636 C64.520295,50.359335 64.1859669,50.2613344 63.8612744,50.2234108 C63.536655,50.1854122 63.2067797,50.1983287 62.8849342,50.1402793 C62.18759,50.0146433 61.6003258,49.5713503 61.088103,49.0918609 C60.5682885,48.6053125 60.0079604,48.1442217 59.6488862,47.5100341 C59.4912848,47.2315773 59.4469754,47.0056878 59.3890885,46.7052278 C59.3356544,46.4283481 59.1452041,46.0195993 58.8283224,46.0004498 C58.5970666,45.9864068 58.2141952,46.3048148 58.051338,46.4507267 C57.7559175,46.7152907 57.5479479,47.0376788 57.4450216,47.4229224 C57.348957,47.7827836 57.1590907,48.0994643 57.0528795,48.459776 C56.9851379,48.6895705 56.955939,48.9767384 57.1316437,49.1348911 C57.2787335,49.2672106 57.4988937,49.2443814 57.6939427,49.2302633 C58.1467456,49.1975964 58.6004975,49.2432549 59.0342481,49.3834596 C59.3986511,49.5012856 59.824372,49.6134793 60.1489914,49.8184169 C60.2598015,49.8883315 60.3696626,49.9589219 60.4774798,50.0320657" id="Fill-1" fill="#006E81"></path>
                        <path d="M34.5082982,61.7709722 C34.5510483,62.2987363 34.4704161,62.8252766 34.3601331,63.3445459 C34.2665784,63.7855612 33.8180116,64.0776276 33.6696694,64.5251221 C33.5750526,64.8105654 33.5826645,65.1312841 33.771721,65.3837557 C33.9269669,65.591017 34.1861231,65.731543 34.4490852,65.8464402 C34.6289368,65.9250541 34.8216223,65.9963249 35.025814,65.9990606 C35.7223848,66.0084194 36.8244182,65.9614094 36.9460305,65.2232163 C36.9952418,64.9240228 36.8520332,64.6248292 36.6625341,64.3653026 C36.4731235,64.105704 36.2353866,63.8699343 36.0655367,63.6015528 C35.6973366,63.0201556 35.6841486,62.3473301 35.7543368,61.71014 C35.825587,61.0635911 35.8465638,60.4009883 36.1579407,59.7925225 C36.2945996,59.5254369 36.4629449,59.3702248 36.6874938,59.1645473 C36.8944294,58.9749957 37.1231382,58.6129542 36.9224869,58.3693375 C36.776092,58.1915924 36.2332624,58.0825984 35.9932243,58.0418516 C35.5576684,57.9679891 35.1313175,57.9899463 34.7219604,58.1232732 C34.3394218,58.2478172 33.9305073,58.279925 33.5407109,58.3972699 C33.2920873,58.4720683 33.0193892,58.606475 33.0009792,58.8215834 C32.98549,59.0017042 33.1567561,59.151301 33.302974,59.2872195 C33.6425855,59.6027549 33.9138675,59.9614128 34.088143,60.356786 C34.2347149,60.6889513 34.428197,61.0631592 34.4707701,61.4132502 C34.4852857,61.5327548 34.4986506,61.6519715 34.5082982,61.7709722" id="Fill-3" fill="#006E81"></path>
                        <path d="M62.904095,28.1339715 C63.4571642,27.7077183 64.1280328,27.4319668 64.7697963,27.1744689 C65.2595021,26.9780086 65.8101761,26.7803939 66.3002448,26.9759163 C66.6049409,27.0974865 66.8589027,27.3640751 67.1867523,27.3820401 C67.5228035,27.4004379 67.8244513,27.1311077 67.9346296,26.8150252 C68.044808,26.4988706 68,26.1501048 67.9156859,25.8262303 C67.7817009,25.3115953 67.5503844,24.8222121 67.237414,24.3911971 C67.1035742,24.2068578 66.9296695,24.0194161 66.7016917,24.0013789 C66.4738591,23.9833418 66.2679461,24.1448823 66.138316,24.3319632 C66.0085407,24.5190442 65.9295723,24.7371491 65.7989986,24.9235807 C65.6572474,25.1259572 65.4601167,25.2834573 65.2554375,25.4227039 C64.5822463,25.8806303 64.0383949,26.1500327 63.2097347,26.2255721 C62.3142997,26.3071721 61.3547028,26.3760739 60.5719865,25.9360403 C60.4510661,25.8680764 60.3154117,25.7856829 60.1830235,25.8276012 C59.9616507,25.8978016 59.9784169,26.2120082 60.0407642,26.4345863 C60.237024,27.1352923 60.3920575,27.6699125 60.3270973,28.3815129 C60.2836937,28.8572599 60.3575814,29.8419423 60.9462881,29.9876101 C61.5861644,30.1453267 62.2357667,28.7517067 62.5978021,28.3988285 C62.6947706,28.304314 62.7972554,28.216365 62.904095,28.1339715" id="Fill-5" fill="#006E81"></path>
                        <path d="M12.7527966,43.1758573 C12.1259049,43.6715222 11.3680712,43.9887141 10.6431199,44.2846937 C10.0899931,44.5105509 9.46823918,44.7370947 8.91885566,44.5016234 C8.57726169,44.3553504 8.29423927,44.0387689 7.92556146,44.0140467 C7.54763551,43.9887141 7.20530755,44.3023961 7.07803554,44.673229 C6.95069013,45.044062 6.99737121,45.4550304 7.08882504,45.83708 C7.23415294,46.4442236 7.48935755,47.0227536 7.83689676,47.5333738 C7.98560096,47.7517532 8.17929811,47.974253 8.43567708,47.9979833 C8.69183586,48.0216372 8.92531468,47.833779 9.07321151,47.6150181 C9.22110835,47.3963335 9.31234198,47.1404892 9.46126638,46.9224913 C9.62288862,46.6857992 9.84638533,46.5026718 10.0782494,46.3409855 C10.8405603,45.8094582 11.4554148,45.4982943 12.3886695,45.4184813 C13.3971571,45.3321825 14.4777948,45.2616021 15.3539459,45.7879408 C15.4892917,45.8692799 15.6410786,45.9677108 15.7904434,45.9197925 C16.0403634,45.8396743 16.024803,45.4696806 15.9569833,45.2071217 C15.7435421,44.3803015 15.5748003,43.7493513 15.6553178,42.912688 C15.7091919,42.3533101 15.6364546,41.1935795 14.9755796,41.0157171 C14.2570872,40.8231281 13.5113642,42.4561667 13.1002624,42.8674403 C12.9900921,42.9776982 12.8739032,43.080097 12.7527966,43.1758573" id="Fill-7" fill="#006E81"></path>
                        <path d="M54.9332695,14.1071261 C55.222275,13.3891654 55.7067273,12.7416604 56.1737025,12.1281463 C56.530088,11.6600117 56.9436648,11.1551731 57.5179572,11.049769 C57.8750121,10.9842605 58.2644184,11.082643 58.5858496,10.9077408 C58.9154616,10.7283703 59.0526016,10.3026846 58.9818749,9.94553947 C58.9110737,9.58839433 58.674946,9.2914915 58.4149452,9.04086754 C58.0019633,8.64262996 57.5104458,8.32458248 56.9737851,8.10834849 C56.7442763,8.01587056 56.4749048,7.94389896 56.2482965,8.06047381 C56.0217626,8.17696887 55.9157097,8.4469023 55.8962988,8.69593044 C55.876888,8.94495859 55.9229236,9.19318882 55.9023229,9.44213717 C55.8799372,9.71238976 55.7800571,9.97346637 55.6627741,10.2220956 C55.2772351,11.0395558 54.9099914,11.6069506 54.1643483,12.1611798 C53.3586879,12.7601719 52.4849781,13.3847769 51.4968114,13.434806 C51.3442022,13.4425457 51.1695792,13.445498 51.0670217,13.5617537 C50.8955967,13.7561249 51.0859863,14.0373089 51.2687901,14.2069448 C51.844198,14.7411465 52.2883413,15.1456876 52.6215975,15.8425834 C52.8444872,16.3084839 53.4613198,17.1772498 54.1016536,16.9680374 C54.7973194,16.7400741 54.6410661,15.0698062 54.789213,14.5314554 C54.8289271,14.387193 54.8774913,14.2458829 54.9332695,14.1071261" id="Fill-9" fill="#006E81"></path>
                        <path d="M21.3042909,55.5975402 C21.1222936,56.2448563 20.7504503,56.8570088 20.3908075,57.4379727 C20.116335,57.8813398 19.7931383,58.3631577 19.2729462,58.5254453 C18.949594,58.6263496 18.5765073,58.5919504 18.2992373,58.7814517 C18.0148957,58.9757688 17.9387397,59.35523 18.0472231,59.6500691 C18.1557066,59.9449083 18.4104406,60.1675857 18.6816492,60.3479138 C19.1125523,60.6343443 19.6067115,60.8426504 20.130556,60.9586903 C20.3546722,61.0083016 20.6131363,61.0354387 20.8094323,60.9076266 C21.0056506,60.7798146 21.0716265,60.5368035 21.0597369,60.3225348 C21.0479249,60.1081897 20.975499,59.9028649 20.9646973,59.6885198 C20.9530408,59.455752 21.0144318,59.2209967 21.0933854,58.9947266 C21.3530152,58.2505577 21.625778,57.7214219 22.2510343,57.1555172 C22.9267245,56.5440527 23.6624847,55.902164 24.5731706,55.7345253 C24.7139038,55.7086113 24.8756187,55.6839968 24.9567481,55.5721612 C25.0925079,55.3851826 24.8821463,55.1699966 24.6922226,55.0488351 C24.0942426,54.66731 23.6337319,54.3793506 23.2408291,53.8287344 C22.9782464,53.4605868 22.3017791,52.7996639 21.7327849,53.0586515 C21.114678,53.3406483 21.4599444,54.7416886 21.3870523,55.2183848 C21.367547,55.346044 21.3394936,55.4724801 21.3042909,55.5975402" id="Fill-11" fill="#006E81"></path>
                        <path d="M42,11.9297966 C41.6288912,11.5434849 41.0242949,11.4966638 40.5668795,11.2105432 C40.1249759,10.9341332 39.8610062,10.4614057 39.659444,10.0004212 C39.1006614,8.72194935 39.0604392,7.3070791 39.7442174,6.16402713 C39.8715577,5.95107395 40.026224,5.742562 40.0524677,5.49159491 C40.0797935,5.23106788 39.9613814,4.96030345 39.7909329,4.73748924 C39.4863801,4.3392841 39.0030819,4.06144381 38.5071578,4.00905236 C38.0112337,3.95666091 37.513506,4.13400898 37.208863,4.48072596 C37.1434793,4.55517301 37.0857613,4.63880362 37.0624036,4.73568263 C37.0138843,4.93704345 37.1195805,5.15263126 37.2164385,5.35022832 C37.5624761,6.0566096 38.1041237,7.09382482 38.0721082,7.86291023 C38.0439707,8.53737488 37.7095669,9.26137052 37.3656937,9.81298625 C37.1242701,10.2002765 36.8431653,10.6812089 37.105151,11.099362 C37.205436,11.2593968 37.3706539,11.3748687 37.5390282,11.4692637 C38.4670257,11.9900166 39.5633976,12.0027381 40.5970913,11.9997271 C40.8281438,11.9990496 41.0851693,11.9879089 41.2309975,11.8285516 C41.3768257,11.6691943 42,11.9297966 42,11.9297966" id="Fill-13" fill="#006E81"></path>
                        <path d="M23.7436642,12.0757822 C23.5927591,11.5273779 23.5124596,10.9366845 23.7013772,10.3948411 C23.8244217,10.0419084 24.0574581,9.65617122 23.8774712,9.32998122 C23.7044304,9.01655641 23.2532419,8.97005971 22.8811316,9.01420305 C21.9336433,9.12666515 21.0311899,9.58300311 20.3992512,10.2693999 C20.1154551,10.5776188 19.8774571,11.0161995 20.0692752,11.377476 C20.2375836,11.6946091 20.649462,11.7949479 20.9905059,11.940357 C21.8105225,12.2900093 22.3713214,13.0470069 22.6628268,13.8560636 C22.9544087,14.6651204 23.0115801,15.5333677 23.0713467,16.3893491 C23.1344719,17.2931107 23.2883538,18.3350789 24.1037906,18.7952678 C25.4685004,19.5651732 29.5268309,18.0228664 27.3903453,16.5104401 C25.6931406,15.3089427 24.3056843,14.1192121 23.7436642,12.0757822" id="Fill-15" fill="#006E81"></path>
                        <path d="M66.0283142,40.0623174 C66.3255032,40.1670999 66.6179448,40.3180614 66.7980758,40.5780427 C66.9153373,40.7473896 67.0103537,40.9780691 67.2174773,40.998609 C67.4165301,41.018359 67.5889974,40.8243067 67.6941869,40.6380107 C67.9620097,40.1636526 68.060078,39.6005993 67.9639087,39.0894703 C67.9207071,38.8600117 67.8035134,38.6102286 67.576722,38.5839432 C67.3776691,38.5608178 67.1940792,38.7195357 67.0142195,38.8310691 C66.5815253,39.0993094 66.0528652,39.1178385 65.5912795,38.9951733 C65.1296938,38.8724362 64.7201942,38.6224377 64.315442,38.3775382 C63.88797,38.1189215 63.3679909,37.8583657 62.8871442,38.0892606 C62.0825907,38.4757853 61.4123216,40.8454212 62.8098968,40.3380986 C63.9201168,39.9351276 64.9210782,39.6717709 66.0283142,40.0623174" id="Fill-17" fill="#006E81"></path>
                        <path d="M50.4936839,58.4141117 C50.7554232,59.4422181 51.2589949,60.3930245 52.1077769,60.9359934 C52.4461913,61.1524482 52.8693811,61.3301093 52.9768088,61.7128744 C53.0605543,62.0113708 52.909881,62.3707878 52.6473866,62.6085073 C52.384961,62.8462268 52.0285618,62.9706542 51.6875388,62.9954391 C51.4494131,63.0128245 51.2073747,62.9827234 51.0216243,62.8667013 C50.7483529,62.6960088 50.6378362,62.3685607 50.6008371,62.0473628 C50.5450982,61.5633747 50.5584152,61.1404509 50.3284581,60.7142943 C49.9028658,59.9257033 49.4772736,59.1371124 49.0516813,58.3485215 C48.7769684,57.8394612 48.4898309,57.3161765 48.0080193,56.9783834 C47.7757283,56.8155214 47.5033493,56.7000022 47.2917887,56.5147261 C47.0802282,56.3293782 46.9337421,56.0438848 47.0303927,55.7558771 C47.2989963,54.955648 50.0684349,53.3251607 50.5873142,54.3035537 C50.7940697,54.693431 50.2756709,55.7762079 50.2635209,56.2760727 C50.247115,56.9525209 50.3123267,57.7018152 50.4936839,58.4141117" id="Fill-19" fill="#006E81"></path>
                        <g id="Group-23">
                            <mask id="mask-2" fill="white">
                                <use xlink:href="#path-1"></use>
                            </mask>
                            <g id="Clip-22"></g>
                            <path d="M73.8772,31.4967329 C73.7055571,31.0211529 73.3168429,30.6366278 72.8843429,30.6010751 C72.3297,30.5554764 71.8762714,31.0416723 71.4168429,31.3932096 C70.2645571,32.2749029 68.7626286,32.4833743 67.2870571,32.3247052 C66.3639857,32.2253856 64.9409857,32.0367923 64.1460571,31.5570086 C63.4485571,31.1360046 63.2216286,30.0488323 63.0891286,29.315976 C62.8559857,28.0264595 62.4399143,26.7477728 61.9733429,25.5253007 C61.4402,24.1286986 60.4191286,22.9488327 60.8708429,21.410946 C61.5580571,19.0713774 64.3269857,17.400257 66.6258429,17.1337185 C67.1327,17.0749389 67.6467,17.0695241 68.1465571,16.9673545 C68.3196286,16.9320156 68.4992,16.8801471 68.6227714,16.7541095 C68.7368429,16.6376903 68.7869143,16.4746038 68.8284857,16.3172171 C69.0455571,15.4953721 69.1317,14.5973631 68.8014143,13.8139208 C68.5699857,13.2650979 68.0857714,12.7853143 67.5052,12.6184516 C66.9594857,12.4615637 66.0953429,12.3990792 65.6423429,12.7945765 C65.4240571,12.985236 65.2874143,13.2494946 65.1443429,13.5013561 C63.8985571,15.6943676 61.8918429,17.1687725 59.5447,18.0080019 C57.4221286,18.766935 56.4884857,16.7663641 55.1173429,15.5278612 C53.6342,14.1881862 51.9971286,13.0178676 50.2467,12.0506768 C49.0064857,11.3654141 48.0168429,11.1617163 47.8702714,9.52978225 C47.7642714,8.34927516 48.1259143,7.1367065 48.5126286,6.03478588 C48.8492714,5.07550364 49.3384857,4.1679474 49.9679143,3.3679043 C50.5429143,2.63704295 51.5073429,2.10610331 50.7628429,1.07414817 C50.4770571,0.678009632 50.0289143,0.426931897 49.5680571,0.262847894 C48.8132714,-0.00582808136 47.9585571,-0.0663175811 47.2179143,0.239122331 C46.6232714,0.484500231 46.0970571,1.03959292 46.2528429,1.70939479 C46.4373429,2.50238434 46.7197714,3.05647956 46.5994857,3.9190071 C46.4925571,4.68570617 46.2147714,5.41685251 45.9389857,6.14037533 C45.5962714,7.03938181 45.3670571,7.91829638 44.6007,8.55069308 C43.7154857,9.2811982 42.7905571,9.47164394 41.7411286,9.16192915 C40.4800571,8.78980117 38.9717714,8.81651914 37.6658429,8.81651914 C36.0410571,8.81651914 34.2928429,9.37118434 32.7155571,9.09595356 C31.6710571,8.91370133 31.4319857,7.60402173 31.1333429,6.70009913 C30.7334857,5.4899529 30.6773429,4.17621216 30.8319857,2.91832981 C30.8819857,2.51121909 30.9513429,2.09399116 30.8547714,1.6952877 C30.5025571,0.241402265 28.5315571,0.0126251347 27.5120571,0.785522771 C26.7112714,1.39262645 26.0772,2.47132024 26.5108429,3.3766678 C26.8325571,4.04839336 27.6148429,4.36288176 28.0882714,4.93835136 C28.6345571,5.60245339 28.7074143,6.52604042 28.7183429,7.38500556 C28.7351286,8.69440018 28.4733429,10.7505444 27.0120571,11.285189 C25.3157,11.9058298 23.8152714,12.7238986 22.3316286,13.8062973 C21.4012,14.4850051 20.5163429,15.2254137 19.6837,16.0203982 C18.9577,16.7135694 18.5523429,17.4580391 17.5220571,17.7661152 C16.5078429,18.0693464 15.8522,17.4604615 15.0556286,16.9428453 C14.0114143,16.2642799 13.1670571,15.361426 12.6992714,14.1985884 C12.6234857,14.0103514 12.5406286,13.8196919 12.4470571,13.6353735 C12.0609857,12.8755142 11.4917714,12.2242368 10.4833429,12.3011846 C9.90612857,12.3452158 9.38027143,12.6711751 8.97955714,13.0879043 C8.75962857,13.3167527 8.56762857,13.5795151 8.46462857,13.8794689 C8.2107,14.6193075 8.56234286,15.4722166 9.16684286,15.9700972 C9.63184286,16.3531973 10.1932714,16.5282535 10.7764143,16.6362654 C11.3777714,16.7476259 11.5999143,17.0176556 12.0289857,17.4653776 C12.8569143,18.3295439 13.5961286,19.2635331 14.2976286,20.2295127 C15.3679857,21.7036325 14.5840571,24.1142353 13.3346286,25.1672798 C13.0338429,25.4208512 12.7287,25.6772013 12.3732714,25.8464151 C11.7557714,26.1404554 11.2440571,25.9487984 10.6242,25.8065875 C9.85484286,25.6299639 9.08541429,25.4533403 8.31598571,25.2767166 C7.6507,25.1240323 7.22827143,24.7127179 6.67498571,24.3184318 C6.30777143,24.0567382 5.8617,23.8682874 5.41677143,24.0018773 C5.11441429,24.0926471 4.84512857,24.3245592 4.62848571,24.5968688 C4.3182,24.9868088 4.09534286,25.4866843 4.0817,25.9919034 C4.06805714,26.497265 4.28984286,26.9964281 4.6797,27.1865889 C5.17962857,27.4304705 5.77934286,27.1422014 6.33555714,26.9815373 C7.73041429,26.5787014 9.20534286,26.9295975 10.5217,27.613079 C11.8802714,28.3183624 12.1458429,29.6951575 12.0382714,31.1019481 C11.9563429,32.1741583 11.7774143,34.4440464 10.5894143,34.9135703 C9.97062857,35.1580932 9.27491429,35.4771415 8.61705714,35.5638502 C8.39262857,35.5934181 8.16848571,35.6211335 7.94462857,35.6432204 C6.95191429,35.7411863 5.9552,35.6502027 4.97077143,35.5136204 C4.13484286,35.3976288 3.5617,34.7296793 2.71055714,34.5303989 C2.1677,34.4032213 1.56348571,34.4345704 1.09712857,34.7393691 C0.714128571,34.9895918 0.4622,35.3946363 0.258842857,35.8038133 C0.119771429,36.0836752 -0.00494285714,36.3829165 -2.09269228e-05,36.6951962 C0.0174857143,37.7612079 0.161628571,39.4437279 1.55927143,39.5842289 C2.1257,39.6412272 2.68255714,39.4036866 3.16234286,39.0979617 C3.64205714,38.7922368 4.07462857,38.4140527 4.57191429,38.137682 C5.64948571,37.5388431 6.91698571,37.4772136 8.12155714,37.5452554 C9.2767,37.6104472 10.8685571,37.5016516 11.6693429,38.5501363 C12.1842,39.2242843 12.2327714,40.2318014 12.4306286,41.0257884 C12.7029143,42.1185893 13.0469143,43.1936494 13.4603429,44.2415641 C13.9055571,45.3702027 14.6172714,46.3684576 15.0902714,47.483844 C15.5942,48.6721884 15.5474143,49.5859432 14.9915571,50.7456459 C14.9033429,50.9296793 14.8040571,51.1072292 14.6955571,51.279008 C14.1342,52.1680398 13.3281286,52.9041022 12.5537714,53.5991971 C11.9629143,54.129638 11.2864857,54.6929242 10.4919857,54.6672037 C9.99805714,54.6511729 9.5007,54.4033013 9.0277,54.5462247 C8.54284286,54.6927105 8.25577143,55.2298487 8.2637,55.735139 C8.27162857,56.2404294 8.5157,56.7125183 8.80277143,57.12882 C9.25884286,57.7903571 9.83962857,58.3661117 10.5055571,58.8171824 C10.7903429,59.0100505 11.1334143,59.1867454 11.4652,59.0951918 C11.7968429,59.0037807 12.0043429,58.6687017 12.0908429,58.3365438 C12.1774143,58.0044571 12.1762,57.6542735 12.2642714,57.3225431 C12.3598429,56.9625273 12.5570571,56.6377079 12.7744857,56.3349042 C13.4893429,55.3392142 14.1190571,54.6774634 15.2519857,54.1446001 C16.4762,53.5687742 17.7978429,52.9780576 19.1328429,53.2004936 C19.2285571,53.2164532 19.3302714,53.2344789 19.4284143,53.2371863 C19.7659143,53.2466623 20.8134143,54.5066821 21.1149143,54.7551949 C21.7645571,55.2909081 22.4402,55.7952723 23.1388429,56.2657937 C24.5844143,57.239468 26.0319857,57.4846322 26.1722,59.4489378 C26.3337,61.7107036 25.6049143,63.9845816 23.8921286,65.5375729 C23.5730571,65.826982 23.2137,66.0983654 23.0319857,66.4885191 C22.8434143,66.8934212 22.8777,67.3724211 23.0204143,67.7955626 C23.2754857,68.5517882 23.8784857,69.1868211 24.6274143,69.4671105 C25.3763429,69.7473286 26.2567,69.6616173 26.9289143,69.2290711 C27.0731286,69.136235 27.2104857,69.0256582 27.3013429,68.8803124 C27.4902,68.5780787 27.4449857,68.1922711 27.4037,67.8385251 C27.2559143,66.5740879 26.9862714,64.7041145 27.4670571,63.4894084 C27.8437714,62.5377497 28.8262714,60.9585392 29.7703429,60.5180844 C30.9294857,59.9772413 31.9284143,59.8124448 33.1043429,60.2313114 C34.4845571,60.7230647 36.2152714,60.6888657 37.6658429,60.6888657 C38.7312714,60.6888657 39.9255571,60.4260321 41.0158429,60.6608653 C41.8975571,60.850741 42.3567,61.6234249 42.8847714,62.3113238 C43.6306286,63.2828606 44.0213429,64.4784723 44.1502,65.6857686 C44.2767714,66.8712631 43.8271286,67.9907107 43.8669857,69.1559707 C43.8794143,69.5194064 43.9979143,69.8786385 44.2042714,70.1784499 C44.3998429,70.4625867 44.6829857,70.6974199 45.0177714,70.7827749 C45.4279143,70.8873669 45.8627714,70.7596906 46.2437714,70.5758709 C46.6248429,70.3920512 46.9792,70.1510194 47.3770571,70.0070273 C48.2334857,69.6969563 48.8027,68.6796782 48.3394143,67.8195019 C48.1601286,67.4864178 47.8626286,67.23591 47.5868429,66.9765675 C47.0468429,66.4685697 46.5667714,65.8971613 46.1599143,65.2779454 C45.6759857,64.5415267 45.6122714,63.4810012 45.4389143,62.6190436 C45.2338429,61.5993431 45.0050571,60.0174251 46.0567714,59.2874188 C46.4854143,58.9899586 47.1399143,58.9178557 47.6318429,58.7139441 C48.3969857,58.3967483 49.1469857,58.043216 49.8782714,57.654416 C51.0789857,57.0160345 52.8021286,55.2638339 54.2414857,55.762427 C55.7738429,56.2932241 57.2280571,57.5129889 58.1114857,58.8476052 C58.4834857,59.4094665 58.7959857,60.0432169 58.8009857,60.7165099 C58.8042714,61.1549697 58.7019857,61.6686674 59.0201286,61.9712574 C59.3258429,62.2620914 59.8277,62.156502 60.2099143,61.9770284 C61.1832714,61.5200442 61.9764857,60.6932831 62.3914143,59.703293 C62.5777714,59.2587771 62.6649857,58.6841625 62.3208429,58.3463047 C62.0187714,58.0497708 61.5383429,58.0811912 61.1169143,58.0374449 C60.1032714,57.9321405 59.2116286,57.2797943 58.5888429,56.4751201 C57.7904143,55.44345 56.8527,54.0494841 56.9782,52.6536657 C57.0933429,51.372414 58.3502,50.5162276 59.0447714,49.5184714 C60.0351286,48.0959351 60.6294857,46.776637 62.5010571,46.4511764 C62.7102,46.41484 62.9197,46.3913994 63.1291286,46.3787173 C64.2132714,46.3133117 65.2970571,46.5376714 66.3276286,46.76025 C67.1139857,46.9301051 67.9759143,47.1504037 68.3868429,47.8137932 C68.6422714,48.2261763 68.6967714,48.7779916 69.0798429,49.0797266 C69.4725571,49.3890852 70.0991286,49.3070788 70.5368429,49.0031351 C70.9745571,48.6991914 71.2544857,48.2221864 71.4621286,47.7428303 C71.7920571,46.9811898 71.9789857,46.1683221 72.0102714,45.3594443 C72.0236286,45.0135355 71.9910571,44.6295804 71.7299857,44.4127729 C71.4690571,44.1960367 71.0627,44.2239659 70.7249143,44.3489348 C70.3871286,44.4738324 70.0814143,44.6810214 69.7431286,44.8044228 C69.3759857,44.9383689 68.9842,44.9686493 68.6007,44.9695755 C67.3395571,44.9724967 66.4170571,44.8483116 65.3327714,44.2376455 C64.3066286,43.6597534 63.2299143,43.0276417 62.6196286,42.059881 C62.4992714,41.869079 63.0179143,40.539735 63.0764857,40.2702753 C63.2181286,39.6185704 63.3344857,38.9614506 63.4252,38.3008398 C63.5551286,37.3550946 63.4640571,36.2015905 63.9119857,35.3297295 C64.3473429,34.4823777 65.5699857,34.3797807 66.4446286,34.2512494 C67.6944857,34.067501 68.9444143,33.8837526 70.1943429,33.7000041 C70.8697,33.6007558 71.4132,33.8304591 72.0724143,33.9968943 C72.5098429,34.1073286 72.9941286,34.120937 73.3597714,33.8349477 C73.6083429,33.6406546 73.7744857,33.3268787 73.8769857,32.9945783 C74.0237,32.5187846 74.0488429,31.9723129 73.8772,31.4967329" id="Fill-21" fill="#00C1AE" mask="url(#mask-2)"></path>
                        </g>
                        <path d="M29.9924762,19.0743836 C29.9875762,19.159919 29.9807331,19.2450005 29.9733831,19.328785 C29.9594435,19.4896097 29.9441522,19.6545847 29.85798,19.8006239 C29.7789044,19.9348606 29.645591,20.0434821 29.5147276,20.1493152 C29.2447215,20.3677255 28.9854447,20.6472881 28.641094,20.7902794 C28.3033329,20.9306768 27.9156427,21 27.5351335,21 C26.8030926,21 26.0940309,20.6912555 25.533405,20.3373115 C25.3481348,20.2203893 25.1730026,20.0801216 25.1004321,19.9016581 C25.0134151,19.6874629 25.0871684,19.4549805 25.0707788,19.2303447 C25.0587822,19.0651103 24.9977014,18.9029886 25.0000669,18.7374948 C25.004291,18.4483346 25.2018956,18.1820011 25.4382777,17.9614508 C26.0804292,17.3623139 27.0637211,17.0012365 28.056644,17 C28.189704,16.9998099 28.3242846,17.0059705 28.4516842,17.0362548 C28.6115251,17.074321 28.7530333,17.1485727 28.8919226,17.2218517 C29.1527201,17.3595254 29.4183331,17.5005064 29.6110377,17.6961549 C29.9855486,18.0761681 30.0206089,18.5835441 29.9924762,19.0743836" id="Fill-24" fill="#006E81"></path>
                        <path d="M53.9924762,33.0743836 C53.9875762,33.159919 53.9807331,33.2450005 53.9733831,33.328785 C53.9594435,33.4896097 53.9441522,33.6545847 53.85798,33.8006239 C53.7789044,33.9348606 53.645591,34.0434821 53.5147276,34.1493152 C53.2447215,34.3677255 52.9854447,34.6472881 52.641094,34.7902794 C52.3033329,34.9306768 51.9156427,35 51.5351335,35 C50.8030926,35 50.0940309,34.6912555 49.533405,34.3373115 C49.3481348,34.2203893 49.1730026,34.0801216 49.1004321,33.9016581 C49.0134151,33.6874629 49.0871684,33.4549805 49.0707788,33.2303447 C49.0587822,33.0651103 48.9977014,32.9029886 49.0000669,32.7374948 C49.0043755,32.4483346 49.2018956,32.1820011 49.4382777,31.9613859 C50.0804292,31.3623139 51.0637211,31.0012365 52.056644,31 C52.189704,30.9998099 52.3242846,31.0059705 52.4516842,31.0362548 C52.6115251,31.074321 52.7530333,31.1485727 52.8919226,31.2218517 C53.1527201,31.3595254 53.4183331,31.5005064 53.6110377,31.6961549 C53.9855486,32.0761681 54.0206089,32.5835441 53.9924762,33.0743836" id="Fill-26" fill="#006E81"></path>
                        <path d="M37.9954845,29.074385 C37.9924936,29.1599294 37.9884346,29.2450183 37.9840907,29.3288318 C37.9756877,29.4896262 37.9665014,29.6546112 37.9148018,29.8006471 C37.8673749,29.9348398 37.7873331,30.0434329 37.7088579,30.149293 C37.5468515,30.3677547 37.3912542,30.6472545 37.1846694,30.7902841 C36.9820012,30.9305806 36.7494242,31 36.5211199,31 C36.0818868,31 35.6564688,30.6912566 35.3200653,30.3373268 C35.208904,30.2204434 35.1037957,30.0801469 35.0602854,29.9016788 C35.0080161,29.6874078 35.0522385,29.4550076 35.0424825,29.230351 C35.0352901,29.0650926 34.9986162,28.9030228 35.0000404,28.7374912 C35.002604,28.4483346 35.1211713,28.1820446 35.2629536,27.9614875 C35.6482794,27.3623122 36.2382674,27.0012764 36.8340236,27 C36.9138517,26.9999099 36.9945345,27.0060137 37.0710157,27.0362594 C37.1669377,27.0743399 37.2518219,27.1485877 37.3351395,27.2219246 C37.4916626,27.359488 37.6509629,27.5006044 37.7666817,27.6961996 C37.9913543,28.0761845 38.0123617,28.5835294 37.9954845,29.074385" id="Fill-28" fill="#006E81"></path>
                        <path d="M46.995463,20.5558214 C46.9925497,20.6199412 46.9883617,20.6837988 46.9840826,20.7466955 C46.9756156,20.8672476 46.9664202,20.9909444 46.9147985,21.1004896 C46.8672739,21.2012117 46.7873377,21.282628 46.7088582,21.3620351 C46.5468009,21.5258286 46.3912076,21.7354844 46.184721,21.8427582 C45.9819673,21.9480229 45.7493512,22 45.5211053,22 C45.0818206,22 44.6564655,21.7684178 44.32006,21.5030286 C44.2089869,21.4153226 44.1038317,21.3101453 44.060313,21.176315 C44.008054,21.015579 44.0523011,20.8413027 44.0424685,20.6727919 C44.035276,20.5488329 43.9985855,20.4272326 44.0000422,20.3030989 C44.0025914,20.08628 44.12113,19.8864955 44.2629757,19.7211296 C44.6482716,19.2717674 45.2382332,19.0009621 45.8340216,19 C45.9138668,18.9999138 45.9945313,19.0045437 46.0710078,19.0272564 C46.1668765,19.055822 46.2518201,19.1114682 46.3351248,19.1664154 C46.4916285,19.2696709 46.6509546,19.3754597 46.7665798,19.5221313 C46.9913661,19.8071758 47.0123971,20.1877009 46.995463,20.5558214" id="Fill-30" fill="#006E81"></path>
                        <path d="M26.9954855,49.5558047 C26.9925308,49.6199646 26.9884098,49.6837515 26.9840555,49.7466432 C26.9756579,49.8672042 26.9664828,49.9909731 26.9147756,50.1004927 C26.8673449,50.2011342 26.7873348,50.2826024 26.708802,50.3620563 C26.5467601,50.5258133 26.3912497,50.7355268 26.1846541,50.8427336 C25.9819462,50.9480006 25.7493803,51 25.521091,51 C25.0818518,51 24.6563752,50.7684274 24.3200061,50.5029843 C24.2088939,50.415324 24.1037688,50.3101315 24.0602259,50.1762163 C24.0079744,50.0155926 24.0522171,49.8412418 24.04242,49.6727846 C24.0352665,49.5488664 23.998566,49.427261 24.0000434,49.303119 C24.0025315,49.0863181 24.1211083,48.886527 24.2629338,48.7211287 C24.6482887,48.2717853 25.2382175,48.0009707 25.833978,48 C25.9138326,47.9999263 25.9945425,48.0045518 26.0709759,48.0272316 C26.1668481,48.0558051 26.2518346,48.1114601 26.3351104,48.1664437 C26.4916317,48.2696218 26.6509521,48.3754111 26.7666519,48.5221583 C26.9913645,48.8071478 27.0123584,49.1876311 26.9954855,49.5558047" id="Fill-32" fill="#006E81"></path>
                        <path d="M35.9954588,41.5558047 C35.9925041,41.6199646 35.9884609,41.6837515 35.9840289,41.7466432 C35.9756314,41.8672042 35.9664564,41.9909731 35.9147496,42.1004927 C35.8673193,42.2011342 35.7873099,42.2826024 35.7087779,42.3619817 C35.5468152,42.5258133 35.3912284,42.7355268 35.1846346,42.8427336 C34.9820063,42.9480006 34.7494425,43 34.5210774,43 C34.0818421,43 33.6563693,42.7684274 33.3200033,42.5029843 C33.208892,42.415324 33.1037679,42.3101315 33.0602254,42.1762163 C33.0080521,42.0155927 33.0522167,41.8412418 33.0424196,41.6727846 C33.0352662,41.5488664 32.998566,41.427261 33.0000434,41.303119 C33.0025315,41.0863181 33.1211072,40.886527 33.2629314,40.7211287 C33.6482829,40.2717108 34.2382065,40.0009708 34.8339617,40 C34.9138156,39.9999263 34.9945248,40.0044772 35.0709575,40.0272316 C35.1669066,40.0558051 35.2518145,40.1114601 35.3350896,40.1664437 C35.4916095,40.2696218 35.6509285,40.3754111 35.7666272,40.5221583 C35.9913378,40.8071478 36.0124093,41.1876311 35.9954588,41.5558047" id="Fill-34" fill="#006E81"></path>
                        <path d="M57.9954855,42.5558047 C57.9925308,42.6199646 57.9884098,42.6837515 57.9840555,42.7466432 C57.9756579,42.8672042 57.9664828,42.9909731 57.9147756,43.1004927 C57.8673449,43.2011342 57.7873348,43.2826024 57.708802,43.3619817 C57.5467601,43.5258133 57.3912497,43.7355268 57.1846541,43.8427336 C56.982024,43.9480006 56.7493803,44 56.521091,44 C56.0818518,44 55.6563752,43.7684274 55.3200061,43.5029843 C55.2088939,43.415324 55.1037688,43.3101315 55.0602259,43.1762163 C55.0080522,43.0155927 55.0522171,42.8412418 55.04242,42.6727846 C55.0352665,42.5488664 54.998566,42.427261 55.0000434,42.303119 C55.0025315,42.0863181 55.1211083,41.886527 55.2629338,41.7211287 C55.6482887,41.2717108 56.2382175,41.0009708 56.833978,41 C56.9138326,40.9999263 56.9945425,41.0044772 57.0709759,41.0272316 C57.1669259,41.0558051 57.2518346,41.1114601 57.3351104,41.1664437 C57.4916317,41.2696218 57.6509521,41.3754111 57.7666519,41.5221583 C57.9913645,41.8071478 58.0123584,42.1876311 57.9954855,42.5558047" id="Fill-36" fill="#006E81"></path>
                        <path d="M20.9939566,36.0744016 C20.9900546,36.1599968 20.984546,36.2450781 20.9787314,36.3288381 C20.9675611,36.4896044 20.9553197,36.6546284 20.8863855,36.8007128 C20.8231129,36.934905 20.7164599,37.0434773 20.6117196,37.1493334 C20.3957358,37.3677994 20.188321,37.6473419 19.9128901,37.7903431 C19.6426617,37.9307017 19.3325723,38 19.0281446,38 C18.4424713,38 17.8752365,37.6912406 17.4267431,37.3373346 C17.2785459,37.2203936 17.1383822,37.0801819 17.0803887,36.901724 C17.0107658,36.6875157 17.069754,36.4550286 17.056671,36.2303962 C17.0470309,36.065152 16.9981419,35.9029909 17.0000546,35.7375264 C17.003421,35.4483673 17.1614878,35.1820385 17.350617,34.9614437 C17.8643723,34.3623507 18.6509572,34.0012505 19.445346,34 C19.5517695,33.9998557 19.6594171,34.0060221 19.7613265,34.0363401 C19.8892489,34.0743661 20.0024051,34.1486563 20.1134956,34.2219187 C20.3222111,34.3595611 20.5346754,34.5005803 20.6888403,34.696216 C20.988448,35.0761824 21.0165266,35.5835138 20.9939566,36.0744016" id="Fill-38" fill="#006E81"></path>
                        <path d="M46.9939566,50.0744016 C46.9900546,50.1599968 46.984546,50.2450781 46.9787314,50.3288381 C46.9675611,50.4896044 46.9553197,50.6546284 46.8863855,50.8007128 C46.8231129,50.934905 46.7164599,51.0434773 46.6117196,51.1493334 C46.3957358,51.3677994 46.188321,51.6473419 45.9128901,51.7903431 C45.6426617,51.9307017 45.3325723,52 45.0281446,52 C44.4424713,52 43.8752365,51.6912406 43.4267431,51.3373346 C43.2785459,51.2203936 43.1383822,51.0801819 43.0803887,50.901724 C43.0106893,50.6875157 43.0696775,50.4550286 43.056671,50.2303962 C43.0470309,50.065152 42.9981419,49.9029909 43.0000546,49.7375264 C43.003421,49.4483673 43.1614878,49.1820385 43.350617,48.9614437 C43.8643723,48.3623507 44.6509572,48.0013239 45.445346,48 C45.5517695,47.9998557 45.6594171,48.0060221 45.7613265,48.0363401 C45.8891724,48.0743661 46.0024051,48.1486563 46.1134956,48.2219187 C46.3222111,48.3595611 46.5346754,48.5005803 46.6888403,48.696216 C46.988448,49.0761824 47.0165266,49.5835138 46.9939566,50.0744016" id="Fill-40" fill="#006E81"></path>
                    </g>
                    <g id="covid-virus" opacity="0.8" transform="translate(3.000000, 34.000000)">
                        <path d="M24.1909919,20.0128263 C24.3821575,20.1425325 24.5466645,20.307594 24.7023533,20.4792339 C24.834537,20.6249506 24.839822,20.8330573 24.9626621,20.9963765 C25.0409737,21.1004899 25.1532437,21.1846578 25.2805804,21.198055 C25.3851418,21.209019 25.4887982,21.1720416 25.5843956,21.127074 C25.649772,21.0963146 25.7153821,21.0598779 25.7597937,21.0016933 C25.9112779,20.8031389 26.1295986,20.472325 25.9008247,20.2385054 C25.808118,20.143734 25.6743868,20.1045338 25.5445098,20.0893643 C25.414662,20.0741649 25.2827119,20.0793315 25.1539737,20.0561117 C24.875036,20.0058573 24.6401303,19.8285401 24.4352412,19.6367444 C24.2273154,19.442125 24.0031842,19.2576887 23.8595545,19.0040136 C23.7965139,18.8926309 23.7787902,18.8022751 23.7556354,18.6820911 C23.7342617,18.5713392 23.6580816,18.4078397 23.531329,18.4001799 C23.4388266,18.3945627 23.2856781,18.5219259 23.2205352,18.5802907 C23.102367,18.6861163 23.0191792,18.8150715 22.9780086,18.969169 C22.9395828,19.1131134 22.8636363,19.2397857 22.8211518,19.3839104 C22.7940552,19.4758282 22.7823756,19.5906954 22.8526575,19.6539564 C22.9114934,19.7068842 22.9995575,19.6977525 23.0775771,19.6921053 C23.2586982,19.6790386 23.440199,19.697302 23.6136992,19.7533838 C23.7594604,19.8005142 23.9297488,19.8453917 24.0595966,19.9273668 C24.1039206,19.9553326 24.147865,19.9835688 24.1909919,20.0128263" id="Fill-1" fill="#006E81"></path>
                        <path d="M13.8033193,24.7083889 C13.8204193,24.9194945 13.7881664,25.1301106 13.7440532,25.3378183 C13.7066314,25.5142245 13.5272046,25.631051 13.4678678,25.8100488 C13.430021,25.9242261 13.4330658,26.0525137 13.5086884,26.1535023 C13.5707868,26.2364068 13.6744492,26.2926172 13.7796341,26.3385761 C13.8515747,26.3700216 13.9286489,26.39853 14.0103256,26.3996242 C14.2889539,26.4033677 14.7297673,26.3845638 14.7784122,26.0892865 C14.7980967,25.9696091 14.7408133,25.8499317 14.6650136,25.746121 C14.5892494,25.6422816 14.4941547,25.5479737 14.4262147,25.4406211 C14.2789346,25.2080622 14.2736595,24.938932 14.3017347,24.684056 C14.3302348,24.4254364 14.3386255,24.1603953 14.4631763,23.917009 C14.5178398,23.8101748 14.585178,23.7480899 14.6749975,23.6658189 C14.7577717,23.5899983 14.8492553,23.4451817 14.7689948,23.347735 C14.7104368,23.276637 14.493305,23.2330394 14.3972897,23.2167407 C14.2230674,23.1871957 14.052527,23.1959785 13.8887842,23.2493093 C13.7357687,23.2991269 13.5722029,23.31197 13.4162844,23.358908 C13.3168349,23.3888273 13.2077557,23.44259 13.2003917,23.5286334 C13.194196,23.6006817 13.2627024,23.6605204 13.3211896,23.7148878 C13.4570342,23.841102 13.565547,23.9845651 13.6352572,24.1427144 C13.693886,24.2755805 13.7712788,24.4252637 13.788308,24.5653001 C13.7941143,24.6131019 13.7994603,24.6607886 13.8033193,24.7083889" id="Fill-3" fill="#006E81"></path>
                        <path d="M25.161638,11.2535886 C25.3828657,11.0830873 25.6512131,10.9727867 25.9079185,10.8697876 C26.1038008,10.7912034 26.3240704,10.7121576 26.5200979,10.7903665 C26.6419764,10.8389946 26.7435611,10.94563 26.8747009,10.952816 C27.0091214,10.9601752 27.1297805,10.8524431 27.1738518,10.7260101 C27.2179232,10.5995482 27.2,10.4600419 27.1662744,10.3304921 C27.1126804,10.1246381 27.0201538,9.92888486 26.8949656,9.75647886 C26.8414297,9.68274312 26.7718678,9.60776642 26.6806767,9.60055157 C26.5895437,9.59333673 26.5071784,9.6579529 26.4553264,9.7327853 C26.4034163,9.8076177 26.3718289,9.89485964 26.3195994,9.9694323 C26.262899,10.0503829 26.1840467,10.1133829 26.102175,10.1690816 C25.8328985,10.3522521 25.615358,10.4600131 25.2838939,10.4902289 C24.9257199,10.5228688 24.5418811,10.5504295 24.2287946,10.3744161 C24.1804264,10.3472306 24.1261647,10.3142732 24.0732094,10.3310405 C23.9846603,10.3591206 23.9913668,10.4848033 24.0163057,10.5738345 C24.0948096,10.8541169 24.156823,11.067965 24.1308389,11.3526052 C24.1134775,11.542904 24.1430326,11.9367769 24.3785152,11.995044 C24.6344658,12.0581307 24.8943067,11.5006827 25.0391208,11.3595314 C25.0779083,11.3217256 25.1189021,11.286546 25.161638,11.2535886" id="Fill-5" fill="#006E81"></path>
                        <path d="M5.10111865,17.2703429 C4.85036195,17.4686089 4.5472285,17.5954856 4.25724795,17.7138775 C4.03599722,17.8042203 3.78729567,17.8948379 3.56754227,17.8006494 C3.43090468,17.7421402 3.31769571,17.6155076 3.17022458,17.6056187 C3.0190542,17.5954856 2.88212302,17.7209584 2.83121422,17.8692916 C2.78027605,18.0176248 2.79894849,18.1820122 2.83553001,18.334832 C2.89366118,18.5776894 2.99574302,18.8091014 3.1347587,19.0133495 C3.19424039,19.1007013 3.27171924,19.1897012 3.37427083,19.1991933 C3.47673434,19.2086549 3.57012587,19.1335116 3.62928461,19.0460072 C3.68844334,18.9585334 3.72493679,18.8561957 3.78450655,18.7689965 C3.84915545,18.6743197 3.93855413,18.6010687 4.03129976,18.5363942 C4.33622412,18.3237833 4.58216591,18.1993177 4.95546779,18.1673925 C5.35886282,18.132873 5.79111792,18.1046408 6.14157837,18.3151763 C6.19571668,18.3477119 6.25643145,18.3870843 6.31617737,18.367917 C6.41614535,18.3358697 6.40992121,18.1878722 6.38279333,18.0828487 C6.29741686,17.7521206 6.22992012,17.4997405 6.26212713,17.1650752 C6.28367676,16.941324 6.25458182,16.4774318 5.99023183,16.4062868 C5.70283489,16.3292512 5.4045457,16.9824667 5.24010497,17.1469761 C5.19603685,17.1910793 5.14956128,17.2320388 5.10111865,17.2703429" id="Fill-7" fill="#006E81"></path>
                        <path d="M21.9733078,5.64285045 C22.08891,5.35566618 22.2826909,5.09666414 22.469481,4.85125851 C22.6120352,4.66400467 22.7774659,4.46206926 23.0071829,4.41990762 C23.1500049,4.39370421 23.3057674,4.4330572 23.4343398,4.36309633 C23.5661846,4.29134813 23.6210407,4.12107384 23.5927499,3.97821579 C23.5644295,3.83535773 23.4699784,3.7165966 23.3659781,3.61634701 C23.2007853,3.45705198 23.0041783,3.32983299 22.789514,3.2433394 C22.6977105,3.20634823 22.5899619,3.17755958 22.4993186,3.22418952 C22.408705,3.27078755 22.3662839,3.37876092 22.3585195,3.47837218 C22.3507552,3.57798343 22.3691695,3.67727553 22.3609292,3.77685487 C22.3519749,3.8849559 22.3120228,3.98938655 22.2651096,4.08883822 C22.110894,4.41582231 21.9639966,4.64278023 21.6657393,4.86447193 C21.3434752,5.10406876 20.9939912,5.35391077 20.5987246,5.37392239 C20.5376809,5.37701829 20.4678317,5.3781992 20.4268087,5.42470147 C20.3582387,5.50244996 20.4343945,5.61492355 20.507516,5.68277793 C20.7376792,5.8964586 20.9153365,6.05827503 21.048639,6.33703336 C21.1377949,6.52339354 21.3845279,6.87089991 21.6406615,6.78721496 C21.9189278,6.69602965 21.8564264,6.02792248 21.9156852,5.81258216 C21.9315708,5.75487721 21.9509965,5.69835316 21.9733078,5.64285045" id="Fill-9" fill="#006E81"></path>
                        <path d="M8.52171636,22.2390161 C8.44891744,22.4979425 8.30018011,22.7428035 8.15632298,22.9751891 C8.04653401,23.1525359 7.91725531,23.3452631 7.70917847,23.4101781 C7.57983761,23.4505398 7.43060294,23.4367802 7.31969494,23.5125807 C7.20595828,23.5903075 7.17549588,23.742092 7.21888926,23.8600277 C7.26228264,23.9779633 7.36417626,24.0670343 7.4726597,24.1391655 C7.64502093,24.2537377 7.8426846,24.3370602 8.05222239,24.3834761 C8.14186888,24.4033206 8.24525454,24.4141755 8.32377293,24.3630507 C8.40226023,24.3119258 8.42865062,24.2147214 8.42389475,24.1290139 C8.41916997,24.0432759 8.39019961,23.9611459 8.38587892,23.8754079 C8.38121631,23.7823008 8.40577273,23.6883987 8.43735416,23.5978906 C8.54120607,23.3002231 8.6503112,23.0885688 8.90041372,22.8622069 C9.1706898,22.6176211 9.46499388,22.3608656 9.82926823,22.2938101 C9.8855615,22.2834445 9.95024748,22.2735987 9.98269926,22.2288645 C10.0370031,22.154073 9.95285854,22.0679986 9.87688904,22.019534 C9.63769704,21.866924 9.45349277,21.7517402 9.29633166,21.5314938 C9.19129855,21.3842347 8.92071162,21.1198656 8.69311398,21.2234606 C8.4458712,21.3362593 8.58397777,21.8966754 8.5548209,22.0873539 C8.5470188,22.1384176 8.53579744,22.188992 8.52171636,22.2390161" id="Fill-11" fill="#006E81"></path>
                        <path d="M16.8,4.77191862 C16.6515565,4.61739395 16.4097179,4.59866551 16.2267518,4.48421729 C16.0499904,4.37365327 15.9444025,4.18456229 15.8637776,4.00016847 C15.6402646,3.48877974 15.6241757,2.92283164 15.8976869,2.46561085 C15.9486231,2.38042958 16.0104896,2.2970248 16.0209871,2.19663796 C16.0319174,2.09242715 15.9845526,1.98412138 15.9163732,1.89499569 C15.7945521,1.73571364 15.6012328,1.62457753 15.4028631,1.60362095 C15.2044935,1.58266437 15.0054024,1.65360359 14.8835452,1.79229039 C14.8573917,1.8220692 14.8343045,1.85552145 14.8249614,1.89427305 C14.8055537,1.97481738 14.8478322,2.0610525 14.8865754,2.14009133 C15.0249904,2.42264384 15.2416495,2.83752993 15.2288433,3.14516409 C15.2175883,3.41494995 15.0838268,3.70454821 14.9462775,3.9251945 C14.849708,4.0801106 14.7372661,4.27248357 14.8420604,4.43974478 C14.8821744,4.5037587 14.9482615,4.54994749 15.0156113,4.58770546 C15.3868103,4.79600664 15.825359,4.80109524 16.2388365,4.79989084 C16.3312575,4.79961985 16.4340677,4.79516356 16.492399,4.73142063 C16.5507303,4.6676777 16.8,4.77191862 16.8,4.77191862" id="Fill-13" fill="#006E81"></path>
                        <path d="M9.49746568,4.83031288 C9.43710366,4.61095117 9.40498386,4.3746738 9.48055088,4.15793644 C9.52976867,4.01676335 9.62298326,3.86246849 9.5509885,3.73199249 C9.48177216,3.60662256 9.30129675,3.58802389 9.15245263,3.60568122 C8.77345732,3.65066606 8.41247596,3.83320124 8.15970047,4.10775995 C8.04618202,4.2310475 7.95098285,4.40647982 8.02771008,4.55099041 C8.09503343,4.67784366 8.25978479,4.71797915 8.39620234,4.77614281 C8.72420899,4.91600372 8.94852854,5.21880275 9.06513074,5.54242545 C9.18176347,5.86604816 9.20463203,6.21334709 9.22853869,6.55573962 C9.25378876,6.9172443 9.31534153,7.33403154 9.64151626,7.51810711 C10.1874002,7.82606927 11.8107324,7.20914655 10.9561381,6.60417606 C10.2772562,6.12357709 9.72227374,5.64768484 9.49746568,4.83031288" id="Fill-15" fill="#006E81"></path>
                        <path d="M26.4113257,16.024927 C26.5302013,16.06684 26.6471779,16.1272246 26.7192303,16.2312171 C26.7661349,16.2989558 26.8041415,16.3912276 26.8869909,16.3994436 C26.9666121,16.4073436 27.035599,16.3297227 27.0776748,16.2552043 C27.1848039,16.065461 27.2240312,15.8402397 27.1855635,15.6357881 C27.1682828,15.5440047 27.1214054,15.4440914 27.0306888,15.4335773 C26.9510676,15.4243271 26.8776317,15.4878143 26.8056878,15.5324276 C26.6326101,15.6397238 26.4211461,15.6471354 26.2365118,15.5980693 C26.0518775,15.5489745 25.8880777,15.4489751 25.7261768,15.3510153 C25.555188,15.2475686 25.3471964,15.1433463 25.1548577,15.2357042 C24.8330363,15.3903141 24.5649286,16.3381685 25.1239587,16.1352394 C25.5680467,15.9740511 25.9684313,15.8687084 26.4113257,16.024927" id="Fill-17" fill="#006E81"></path>
                        <path d="M20.1974736,23.3656447 C20.3021693,23.7768873 20.503598,24.1572098 20.8431107,24.3743974 C20.9784765,24.4609793 21.1477524,24.5320437 21.1907235,24.6851497 C21.2242217,24.8045483 21.1639524,24.9483151 21.0589547,25.0434029 C20.9539844,25.1384907 20.8114247,25.1882617 20.6750155,25.1981757 C20.5797652,25.2051298 20.4829499,25.1930894 20.4086497,25.1466805 C20.2993411,25.0784035 20.2551345,24.9474243 20.2403348,24.8189451 C20.2180393,24.6253499 20.2233661,24.4561804 20.1313832,24.2857177 C19.9611463,23.9702813 19.7909094,23.654845 19.6206725,23.3394086 C19.5107874,23.1357845 19.3959324,22.9264706 19.2032077,22.7913534 C19.1102913,22.7262086 19.0013397,22.6800009 18.9167155,22.6058904 C18.8320913,22.5317513 18.7734968,22.4175539 18.8121571,22.3023508 C18.9195985,21.9822592 20.027374,21.3300643 20.2349257,21.7214215 C20.3176279,21.8773724 20.1102684,22.3104832 20.1054084,22.5104291 C20.098846,22.7810084 20.1249307,23.0807261 20.1974736,23.3656447" id="Fill-19" fill="#006E81"></path>
                        <g id="Group-23">
                            <mask id="mask-4" fill="white">
                                <use xlink:href="#path-3"></use>
                            </mask>
                            <g id="Clip-22"></g>
                            <path d="M29.55088,12.5986932 C29.4822229,12.4084612 29.3267371,12.2546511 29.1537371,12.24043 C28.93188,12.2221905 28.7505086,12.4166689 28.5667371,12.5572839 C28.1058229,12.9099611 27.5050514,12.9933497 26.9148229,12.9298821 C26.5455943,12.8901542 25.9763943,12.8147169 25.6584229,12.6228035 C25.3794229,12.4544018 25.2886514,12.0195329 25.2356514,11.7263904 C25.1423943,11.2105838 24.9759657,10.6991091 24.7893371,10.2101203 C24.57608,9.65147943 24.1676514,9.17953309 24.3483371,8.56437839 C24.6232229,7.62855097 25.7307943,6.96010281 26.6503371,6.85348739 C26.85308,6.82997557 27.05868,6.82780964 27.2586229,6.78694182 C27.3278514,6.77280623 27.39968,6.75205883 27.4491086,6.70164379 C27.4947371,6.65507613 27.5147657,6.58984152 27.5313943,6.52688684 C27.6182229,6.19814886 27.65268,5.83894525 27.5205657,5.52556832 C27.4279943,5.30603917 27.2343086,5.11412572 27.00208,5.04738065 C26.7837943,4.98462547 26.4381371,4.95963169 26.2569371,5.11783061 C26.1696229,5.19409441 26.1149657,5.29979785 26.0577371,5.40054243 C25.5594229,6.27774705 24.7567371,6.86750899 23.81788,7.20320077 C22.9688514,7.50677399 22.5953943,6.70654564 22.0469371,6.21114448 C21.45368,5.67527448 20.7988514,5.20714703 20.09868,4.82027072 C19.6025943,4.54616566 19.2067371,4.46468651 19.1481086,3.8119129 C19.1057086,3.33971006 19.2503657,2.8546826 19.4050514,2.41391435 C19.5397086,2.03020146 19.7353943,1.66717896 19.9871657,1.34716172 C20.2171657,1.05481718 20.6029371,0.842441324 20.3051371,0.429659268 C20.1908229,0.271203853 20.0115657,0.170772759 19.8272229,0.105139158 C19.5253086,-0.00233123255 19.1834229,-0.0265270324 18.8871657,0.0956489324 C18.6493086,0.193800092 18.4388229,0.415837168 18.5011371,0.683757915 C18.5749371,1.00095374 18.6879086,1.22259182 18.6397943,1.56760284 C18.5970229,1.87428247 18.4859086,2.166741 18.3755943,2.45615013 C18.2385086,2.81575273 18.1468229,3.16731855 17.84028,3.42027723 C17.4861943,3.71247928 17.1162229,3.78865757 16.6964514,3.66477166 C16.1920229,3.51592047 15.5887086,3.52660766 15.0663371,3.52660766 C14.4164229,3.52660766 13.7171371,3.74847374 13.0862229,3.63838142 C12.6684229,3.56548053 12.5727943,3.04160869 12.4533371,2.68003965 C12.2933943,2.19598116 12.2709371,1.67048486 12.3327943,1.16733192 C12.3527943,1.00448763 12.3805371,0.837596464 12.3419086,0.678115079 C12.2010229,0.096560906 11.4126229,0.00505005388 11.0048229,0.314209108 C10.6845086,0.557050582 10.43088,0.988528097 10.6043371,1.35066712 C10.7330229,1.61935734 11.0459371,1.7451527 11.2353086,1.97534054 C11.4538229,2.24098136 11.4829657,2.61041617 11.4873371,2.95400223 C11.4940514,3.47776007 11.3893371,4.30021777 10.8048229,4.51407558 C10.12628,4.7623319 9.52610857,5.08955943 8.93265143,5.5225189 C8.56048,5.79400205 8.20653714,6.09016548 7.87348,6.40815928 C7.58308,6.68542776 7.42093714,6.98321564 7.00882286,7.10644607 C6.60313714,7.22773856 6.34088,6.98418461 6.02225143,6.7771381 C5.60456571,6.50571196 5.26682286,6.14457041 5.07970857,5.67943536 C5.04939429,5.60414054 5.01625143,5.52787675 4.97882286,5.45414938 C4.82439429,5.15020568 4.59670857,4.88969472 4.19333714,4.92047383 C3.96245143,4.93808632 3.75210857,5.06847004 3.59182286,5.23516172 C3.50385143,5.32670107 3.42705143,5.43180603 3.38585143,5.55178756 C3.28428,5.847723 3.42493714,6.18888662 3.66673714,6.38803886 C3.85273714,6.54127893 4.07730857,6.6113014 4.31056571,6.65450615 C4.55110857,6.69905036 4.63996571,6.80706224 4.81159429,6.98615105 C5.14276571,7.33181755 5.43845143,7.70541324 5.71905143,8.09180506 C6.14719429,8.681453 5.83362286,9.6456941 5.33385143,10.0669119 C5.21353714,10.1683405 5.09148,10.2708805 4.94930857,10.3385661 C4.70230857,10.4561821 4.49762286,10.3795194 4.24968,10.322635 C3.94193714,10.2519856 3.63416571,10.1813361 3.32639429,10.1106866 C3.06028,10.0496129 2.89130857,9.88508717 2.66999429,9.72737274 C2.52310857,9.62269527 2.34468,9.54731495 2.16670857,9.6007509 C2.04576571,9.63705885 1.93805143,9.72982367 1.85139429,9.83874751 C1.72728,9.9947235 1.63813714,10.1946737 1.63268,10.3967614 C1.62722286,10.598906 1.71593714,10.7985712 1.87188,10.8746355 C2.07185143,10.9721882 2.31173714,10.8568806 2.53422286,10.7926149 C3.09216571,10.6314806 3.68213714,10.771839 4.20868,11.0452316 C4.75210857,11.3273449 4.85833714,11.878063 4.81530857,12.4407792 C4.78253714,12.8696633 4.71096571,13.7776185 4.23576571,13.9654281 C3.98825143,14.0632373 3.70996571,14.1908566 3.44682286,14.2255401 C3.35705143,14.2373672 3.26739429,14.2484534 3.17785143,14.2572882 C2.78076571,14.2964745 2.38208,14.2600811 1.98830857,14.2054482 C1.65393714,14.1590515 1.42468,13.8918717 1.08422286,13.8121595 C0.86708,13.7612885 0.625394286,13.7738282 0.438851429,13.8957476 C0.285651429,13.9958367 0.18488,14.1578545 0.103537143,14.3215253 C0.0479085714,14.4334701 -0.00197714286,14.5531666 -8.37076911e-06,14.6780785 C0.00699428571,15.1044831 0.0646514286,15.7774912 0.623708571,15.8336915 C0.85028,15.8564909 1.07302286,15.7614746 1.26493714,15.6391847 C1.45682286,15.5168947 1.62985143,15.3656211 1.82876571,15.2550728 C2.25979429,15.0155372 2.76679429,14.9908854 3.24862286,15.0181021 C3.71068,15.0441789 4.34742286,15.0006607 4.66773714,15.4200545 C4.87368,15.6897137 4.89310857,16.0927206 4.97225143,16.4103154 C5.08116571,16.8474357 5.21876571,17.2774598 5.38413714,17.6966256 C5.56222286,18.1480811 5.84690857,18.547383 6.03610857,18.9935376 C6.23768,19.4688754 6.21896571,19.8343773 5.99662286,20.2982584 C5.96133714,20.3718717 5.92162286,20.4428917 5.87822286,20.5116032 C5.65368,20.8672159 5.33125143,21.1616409 5.02150857,21.4396788 C4.78516571,21.6518552 4.51459429,21.8771697 4.19679429,21.8668815 C3.99922286,21.8604692 3.80028,21.7613205 3.61108,21.8184899 C3.41713714,21.8770842 3.30230857,22.0919395 3.30548,22.2940556 C3.30865143,22.4961718 3.40628,22.6850073 3.52110857,22.851528 C3.70353714,23.1161428 3.93585143,23.3464447 4.20222286,23.5268729 C4.31613714,23.6040202 4.45336571,23.6746982 4.58608,23.6380767 C4.71873714,23.6015123 4.80173714,23.4674807 4.83633714,23.3346175 C4.87096571,23.2017829 4.87048,23.0617094 4.90570857,22.9290172 C4.94393714,22.7850109 5.02282286,22.6550832 5.10979429,22.5339617 C5.39573714,22.1356857 5.64762286,21.8709854 6.10079429,21.65784 C6.59048,21.4275097 7.11913714,21.191223 7.65313714,21.2801975 C7.69142286,21.2865813 7.73210857,21.2937916 7.77136571,21.2948745 C7.90636571,21.2986649 8.32536571,21.8026728 8.44596571,21.902078 C8.70582286,22.1163633 8.97608,22.3181089 9.25553714,22.5063175 C9.83376571,22.8957872 10.4127943,22.9938529 10.46888,23.7795751 C10.53348,24.6842815 10.2419657,25.5938326 9.55685143,26.2150292 C9.42922286,26.3307928 9.28548,26.4393462 9.21279429,26.5954077 C9.13736571,26.7573685 9.15108,26.9489684 9.20816571,27.118225 C9.31019429,27.4207153 9.55139429,27.6747284 9.85096571,27.7868442 C10.1505371,27.8989314 10.50268,27.8646469 10.7715657,27.6916284 C10.8292514,27.654494 10.8841943,27.6102633 10.9205371,27.552125 C10.99608,27.4312315 10.9779943,27.2769084 10.96148,27.13541 C10.9023657,26.6296352 10.7945086,25.8816458 10.9868229,25.3957634 C11.1375086,25.0150999 11.5305086,24.3834157 11.9081371,24.2072338 C12.3717943,23.9908965 12.7713657,23.9249779 13.2417371,24.0925246 C13.7938229,24.2892259 14.4861086,24.2755463 15.0663371,24.2755463 C15.4925086,24.2755463 15.9702229,24.1704128 16.4063371,24.2643461 C16.7590229,24.3402964 16.94268,24.64937 17.1539086,24.9245295 C17.4522514,25.3131443 17.6085371,25.7913889 17.66008,26.2743074 C17.7107086,26.7485052 17.5308514,27.1962843 17.5467943,27.6623883 C17.5517657,27.8077626 17.5991657,27.9514554 17.6817086,28.0713799 C17.7599371,28.1850347 17.8731943,28.2789679 18.0071086,28.31311 C18.1711657,28.3549467 18.3451086,28.3038762 18.4975086,28.2303483 C18.6499371,28.1568205 18.79168,28.0604078 18.9508229,28.0028109 C19.2933943,27.8787825 19.52108,27.4718713 19.3357657,27.1278008 C19.2640514,26.9945671 19.1450514,26.894364 19.0347371,26.790627 C18.8187371,26.5874279 18.6267086,26.3588645 18.4639657,26.1111782 C18.2703943,25.8166107 18.2449086,25.3924005 18.1755657,25.0476174 C18.0935371,24.6397372 18.0020229,24.0069701 18.4227086,23.7149675 C18.5941657,23.5959834 18.8559657,23.5671423 19.0527371,23.4855776 C19.3587943,23.3586993 19.6587943,23.2172864 19.9513086,23.0617664 C20.4315943,22.8064138 21.1208514,22.1055336 21.6965943,22.3049708 C22.3095371,22.5172897 22.8912229,23.0051955 23.2445943,23.5390421 C23.3933943,23.7637866 23.5183943,24.0172868 23.5203943,24.286604 C23.5217086,24.4619879 23.4807943,24.6674669 23.6080514,24.7885029 C23.7303371,24.9048366 23.93108,24.8626008 24.0839657,24.7908114 C24.4733086,24.6080177 24.7905943,24.2773132 24.9565657,23.8813172 C25.0311086,23.7035108 25.0659943,23.473665 24.9283371,23.3385219 C24.8075086,23.2199083 24.6153371,23.2324765 24.4467657,23.214978 C24.0413086,23.1728562 23.6846514,22.9119177 23.4355371,22.5900481 C23.1161657,22.17738 22.74108,21.6197936 22.79128,21.0614663 C22.8373371,20.5489656 23.34008,20.206491 23.6179086,19.8073886 C24.0140514,19.238374 24.2517943,18.7106548 25.0004229,18.5804706 C25.08408,18.565936 25.16788,18.5565598 25.2516514,18.5514869 C25.6853086,18.5253247 26.1188229,18.6150686 26.5310514,18.7041 C26.8455943,18.772042 27.1903657,18.8601615 27.3547371,19.1255173 C27.4569086,19.2904705 27.4787086,19.5111966 27.6319371,19.6318906 C27.7890229,19.7556341 28.0396514,19.7228315 28.2147371,19.601254 C28.3898229,19.4796766 28.5017943,19.2888746 28.5848514,19.0971321 C28.7168229,18.7924759 28.7915943,18.4673288 28.8041086,18.1437777 C28.8094514,18.0054142 28.7964229,17.8518322 28.6919943,17.7651092 C28.5876229,17.6784147 28.42508,17.6895863 28.2899657,17.7395739 C28.1548514,17.789533 28.0325657,17.8724086 27.8972514,17.9217691 C27.7503943,17.9753476 27.59368,17.9874597 27.44028,17.9878302 C26.9358229,17.9889987 26.5668229,17.9393246 26.1331086,17.6950582 C25.7226514,17.4639014 25.2919657,17.2110567 25.0478514,16.8239524 C24.9997086,16.7476316 25.2071657,16.215894 25.2305943,16.1081101 C25.2872514,15.8474282 25.3337943,15.5845803 25.37008,15.3203359 C25.4220514,14.9420378 25.3856229,14.4806362 25.5647943,14.1318918 C25.7389371,13.7929511 26.2279943,13.7519123 26.5778514,13.7004998 C27.0777943,13.6270004 27.5777657,13.553501 28.0777371,13.4800017 C28.34788,13.4403023 28.56528,13.5321836 28.8289657,13.5987577 C29.0039371,13.6429314 29.1976514,13.6483748 29.3439086,13.5339791 C29.4433371,13.4562618 29.5097943,13.3307515 29.5507943,13.1978313 C29.60948,13.0075138 29.6195371,12.7889252 29.55088,12.5986932" id="Fill-21" fill="#00C1AE" mask="url(#mask-4)"></path>
                        </g>
                        <path d="M11.9969905,7.62975345 C11.9950305,7.66396761 11.9922932,7.69800019 11.9893533,7.73151398 C11.9837774,7.79584386 11.9776609,7.86183387 11.943192,7.92024955 C11.9115618,7.97394425 11.8582364,8.01739285 11.805891,8.05972606 C11.6978886,8.14709019 11.5941779,8.25891524 11.4564376,8.31611176 C11.3213332,8.37227071 11.1662571,8.4 11.0140534,8.4 C10.721237,8.4 10.4376124,8.27650219 10.213362,8.13492458 C10.1392539,8.08815572 10.069201,8.03204865 10.0401728,7.96066324 C10.0053661,7.87498518 10.0348673,7.78199219 10.0283115,7.69213787 C10.0235129,7.62604411 9.99908055,7.56119544 10.0000268,7.49499792 C10.0017164,7.37933383 10.0807582,7.27280044 10.1753111,7.18458031 C10.4321717,6.94492557 10.8254884,6.80049461 11.2226576,6.8 C11.2758816,6.79992394 11.3297138,6.80238819 11.3806737,6.81450192 C11.44461,6.82972839 11.5012133,6.85942908 11.556769,6.88874068 C11.661088,6.94381017 11.7673332,7.00020257 11.8444151,7.07846195 C11.9942194,7.23046723 12.0082435,7.43341762 11.9969905,7.62975345" id="Fill-24" fill="#006E81"></path>
                        <path d="M21.5969905,13.2297535 C21.5950305,13.2639676 21.5922932,13.2980002 21.5893533,13.331514 C21.5837774,13.3958439 21.5776609,13.4618339 21.543192,13.5202495 C21.5115618,13.5739442 21.4582364,13.6173929 21.405891,13.6597261 C21.2978886,13.7470902 21.1941779,13.8589152 21.0564376,13.9161118 C20.9213332,13.9722707 20.7662571,14 20.6140534,14 C20.321237,14 20.0376124,13.8765022 19.813362,13.7349246 C19.7392539,13.6881557 19.669201,13.6320487 19.6401728,13.5606632 C19.6053661,13.4749852 19.6348673,13.3819922 19.6283115,13.2921379 C19.6235129,13.2260441 19.5990806,13.1611954 19.6000268,13.0949979 C19.6017502,12.9793338 19.6807582,12.8728004 19.7753111,12.7845544 C20.0321717,12.5449256 20.4254884,12.4004946 20.8226576,12.4 C20.8758816,12.3999239 20.9297138,12.4023882 20.9806737,12.4145019 C21.04461,12.4297284 21.1012133,12.4594291 21.156769,12.4887407 C21.261088,12.5438102 21.3673332,12.6002026 21.4444151,12.6784619 C21.5942194,12.8304672 21.6082435,13.0334176 21.5969905,13.2297535" id="Fill-26" fill="#006E81"></path>
                        <path d="M15.1981938,11.629754 C15.1969975,11.6639718 15.1953738,11.6980073 15.1936363,11.7315327 C15.1902751,11.7958505 15.1866006,11.8618445 15.1659207,11.9202588 C15.14695,11.9739359 15.1149332,12.0173732 15.0835432,12.0597172 C15.0187406,12.1471019 14.9565017,12.2589018 14.8738678,12.3161136 C14.7928005,12.3722322 14.6997697,12.4 14.6084479,12.4 C14.4327547,12.4 14.2625875,12.2765026 14.1280261,12.1349307 C14.0835616,12.0881774 14.0415183,12.0320588 14.0241142,11.9606715 C14.0032064,11.8749631 14.0208954,11.782003 14.016993,11.6921404 C14.014116,11.626037 13.9994465,11.5612091 14.0000162,11.4949965 C14.0010416,11.3793338 14.0484685,11.2728178 14.1051814,11.184595 C14.2593118,10.9449249 14.495307,10.8005106 14.7336094,10.8 C14.7655407,10.799964 14.7978138,10.8024055 14.8284063,10.8145038 C14.8667751,10.829736 14.9007288,10.8594351 14.9340558,10.8887698 C14.996665,10.9437952 15.0603851,11.0002418 15.1066727,11.0784798 C15.1965417,11.2304738 15.2049447,11.4334118 15.1981938,11.629754" id="Fill-28" fill="#006E81"></path>
                        <path d="M18.7981852,8.22232858 C18.7970199,8.24797646 18.7953447,8.27351952 18.793633,8.2986782 C18.7902462,8.34689902 18.7865681,8.39637778 18.7659194,8.44019582 C18.7469095,8.48048467 18.7149351,8.51305119 18.6835433,8.54481403 C18.6187204,8.61033145 18.556483,8.69419374 18.4738884,8.73710328 C18.3927869,8.77920914 18.2997405,8.8 18.2084421,8.8 C18.0327282,8.8 17.8625862,8.70736711 17.728024,8.60121142 C17.6835948,8.56612903 17.6415327,8.52405812 17.6241252,8.47052602 C17.6032216,8.40623159 17.6209205,8.33652106 17.6169874,8.26911675 C17.6141104,8.21953317 17.5994342,8.17089304 17.6000169,8.12123957 C17.6010366,8.03451198 17.648452,7.95459821 17.7051903,7.88845182 C17.8593087,7.70870698 18.0952933,7.60038485 18.3336087,7.6 C18.3655467,7.59996554 18.3978125,7.6018175 18.4284031,7.61090258 C18.4667506,7.62232882 18.500728,7.64458727 18.5340499,7.66656618 C18.5966514,7.70786835 18.6603818,7.75018387 18.7066319,7.80885253 C18.7965464,7.92287031 18.8049589,8.07508037 18.7981852,8.22232858" id="Fill-30" fill="#006E81"></path>
                        <path d="M10.7981942,19.8223219 C10.7970123,19.8479858 10.7953639,19.8735006 10.7936222,19.8986573 C10.7902632,19.9468817 10.7865931,19.9963893 10.7659102,20.0401971 C10.746938,20.0804537 10.7149339,20.113041 10.6835208,20.1448225 C10.618704,20.2103253 10.5564999,20.2942107 10.4738616,20.3370934 C10.3927785,20.3792002 10.2997521,20.4 10.2084364,20.4 C10.0327407,20.4 9.86255008,20.307371 9.72800245,20.2011937 C9.68355756,20.1661296 9.64150754,20.1240526 9.62409037,20.0704865 C9.60318976,20.0062371 9.62088685,19.9364967 9.61696799,19.8691139 C9.6141066,19.8195466 9.59942641,19.7709044 9.60001735,19.7212476 C9.60101262,19.6345272 9.6484433,19.5546108 9.70517351,19.4884515 C9.85931546,19.3087141 10.095287,19.2003883 10.3335912,19.2 C10.3655331,19.1999705 10.397817,19.2018207 10.4283904,19.2108926 C10.4667392,19.222322 10.5007338,19.244584 10.5340442,19.2665775 C10.5966527,19.3078487 10.6603808,19.3501644 10.7066608,19.4088633 C10.7965458,19.5228591 10.8049434,19.6750524 10.7981942,19.8223219" id="Fill-32" fill="#006E81"></path>
                        <path d="M14.3981835,16.6223219 C14.3970017,16.6479858 14.3953844,16.6735006 14.3936116,16.6986573 C14.3902526,16.7468817 14.3865825,16.7963893 14.3658998,16.8401971 C14.3469277,16.8804537 14.314924,16.913041 14.2835111,16.9447927 C14.2187261,17.0103253 14.1564913,17.0942107 14.0738538,17.1370934 C13.9928025,17.1792002 13.899777,17.2 13.808431,17.2 C13.6327368,17.2 13.4625477,17.107371 13.3280013,17.0011937 C13.2835568,16.9661296 13.2415072,16.9240526 13.2240902,16.8704865 C13.2032208,16.8062371 13.2208867,16.7364967 13.2169678,16.6691139 C13.2141065,16.6195466 13.1994264,16.5709044 13.2000174,16.5212476 C13.2010126,16.4345272 13.2484429,16.3546108 13.3051726,16.2884515 C13.4593132,16.1086843 13.6952826,16.0003883 13.9335847,16 C13.9655262,15.9999705 13.9978099,16.0017909 14.028383,16.0108926 C14.0667626,16.022322 14.1007258,16.0445841 14.1340358,16.0665775 C14.1966438,16.1078487 14.2603714,16.1501644 14.3066509,16.2088633 C14.3965351,16.3228591 14.4049637,16.4750524 14.3981835,16.6223219" id="Fill-34" fill="#006E81"></path>
                        <path d="M23.1981942,17.0223219 C23.1970123,17.0479858 23.1953639,17.0735006 23.1936222,17.0986573 C23.1902632,17.1468817 23.1865931,17.1963893 23.1659102,17.2401971 C23.146938,17.2804537 23.1149339,17.313041 23.0835208,17.3447927 C23.018704,17.4103253 22.9564999,17.4942107 22.8738616,17.5370934 C22.7928096,17.5792002 22.6997521,17.6 22.6084364,17.6 C22.4327407,17.6 22.2625501,17.507371 22.1280024,17.4011937 C22.0835576,17.3661296 22.0415075,17.3240526 22.0240904,17.2704865 C22.0032209,17.2062371 22.0208869,17.1364967 22.016968,17.0691139 C22.0141066,17.0195466 21.9994264,16.9709044 22.0000174,16.9212476 C22.0010126,16.8345272 22.0484433,16.7546108 22.1051735,16.6884515 C22.2593155,16.5086843 22.495287,16.4003883 22.7335912,16.4 C22.7655331,16.3999705 22.797817,16.4017909 22.8283904,16.4108926 C22.8667703,16.422322 22.9007338,16.4445841 22.9340442,16.4665775 C22.9966527,16.5078487 23.0603808,16.5501644 23.1066608,16.6088633 C23.1965458,16.7228591 23.2049434,16.8750524 23.1981942,17.0223219" id="Fill-36" fill="#006E81"></path>
                        <path d="M8.39758263,14.4297606 C8.39602185,14.4639987 8.39381841,14.4980312 8.39149254,14.5315352 C8.38702444,14.5958417 8.38212789,14.6618514 8.35455419,14.7202851 C8.32924515,14.773962 8.28658395,14.8173909 8.24468784,14.8597334 C8.15829433,14.9471198 8.0753284,15.0589368 7.96515602,15.1161373 C7.85706467,15.1722807 7.73302893,15.2 7.61125784,15.2 C7.37698851,15.2 7.1500946,15.0764963 6.97069724,14.9349338 C6.91141837,14.8881574 6.85535287,14.8320728 6.83215546,14.7606896 C6.80430633,14.6750063 6.82790158,14.5820114 6.8226684,14.4921585 C6.81881236,14.4260608 6.79925676,14.3611964 6.80002185,14.2950106 C6.8013684,14.1793469 6.86459511,14.0728154 6.94024681,13.9845775 C7.14574891,13.7449403 7.46038288,13.6005002 7.7781384,13.6 C7.82070778,13.5999423 7.86376682,13.6024088 7.90453061,13.614536 C7.95569956,13.6297464 8.00096205,13.6594625 8.04539824,13.6887675 C8.12888443,13.7438244 8.21387018,13.8002321 8.27553611,13.8784864 C8.39537918,14.0304729 8.40661064,14.2334055 8.39758263,14.4297606" id="Fill-38" fill="#006E81"></path>
                        <path d="M18.7975826,20.0297606 C18.7960219,20.0639987 18.7938184,20.0980312 18.7914925,20.1315352 C18.7870244,20.1958417 18.7821279,20.2618514 18.7545542,20.3202851 C18.7292451,20.373962 18.686584,20.4173909 18.6446878,20.4597334 C18.5582943,20.5471198 18.4753284,20.6589368 18.365156,20.7161373 C18.2570647,20.7722807 18.1330289,20.8 18.0112578,20.8 C17.7769885,20.8 17.5500946,20.6764963 17.3706972,20.5349338 C17.3114184,20.4881574 17.2553529,20.4320728 17.2321555,20.3606896 C17.2042757,20.2750063 17.227871,20.1820114 17.2226684,20.0921585 C17.2188124,20.0260608 17.1992568,19.9611964 17.2000219,19.8950106 C17.2013684,19.7793469 17.2645951,19.6728154 17.3402468,19.5845775 C17.5457489,19.3449403 17.8603829,19.2005296 18.1781384,19.2 C18.2207078,19.1999423 18.2637668,19.2024088 18.3045306,19.214536 C18.355669,19.2297464 18.400962,19.2594625 18.4453982,19.2887675 C18.5288844,19.3438244 18.6138702,19.4002321 18.6755361,19.4784864 C18.7953792,19.6304729 18.8066106,19.8334055 18.7975826,20.0297606" id="Fill-40" fill="#006E81"></path>
                    </g>
                    <g id="covid-virus" opacity="0.7" transform="translate(0.000000, 8.000000)">
                        <path d="M12.095496,10.0064131 C12.1910788,10.0712662 12.2733322,10.153797 12.3511767,10.2396169 C12.4172685,10.3124753 12.419911,10.4165286 12.481331,10.4981883 C12.5204868,10.550245 12.5766218,10.5923289 12.6402902,10.5990275 C12.6925709,10.6045095 12.7443991,10.5860208 12.7921978,10.563537 C12.824886,10.5481573 12.8576911,10.529939 12.8798969,10.5008467 C12.955639,10.4015695 13.0647993,10.2361625 12.9504124,10.1192527 C12.904059,10.071867 12.8371934,10.0522669 12.7722549,10.0446822 C12.707331,10.0370824 12.6413559,10.0396657 12.5769868,10.0280559 C12.437518,10.0029287 12.3200652,9.91427007 12.2176206,9.81837219 C12.1136577,9.7210625 12.0015921,9.62884434 11.9297772,9.50200681 C11.898257,9.44631545 11.8893951,9.40113757 11.8778177,9.34104557 C11.8671309,9.28566961 11.8290408,9.20391986 11.7656645,9.20008995 C11.7194133,9.19728135 11.642839,9.26096295 11.6102676,9.29014535 C11.5511835,9.34305815 11.5095896,9.40753576 11.4890043,9.48458449 C11.4697914,9.55655671 11.4318181,9.61989287 11.4105759,9.6919552 C11.3970276,9.73791409 11.3911878,9.79534769 11.4263287,9.82697822 C11.4557467,9.85344212 11.4997787,9.84887627 11.5387885,9.84605266 C11.6293491,9.83951928 11.7200995,9.84865099 11.8068496,9.87669192 C11.8797302,9.90025711 11.9648744,9.92269586 12.0297983,9.96368338 C12.0519603,9.9776663 12.0739325,9.99178439 12.095496,10.0064131" id="Fill-1" fill="#006E81"></path>
                        <path d="M6.90165964,12.3541944 C6.91020967,12.4597473 6.89408321,12.5650553 6.87202661,12.6689092 C6.85331568,12.7571122 6.76360231,12.8155255 6.73393388,12.9050244 C6.71501052,12.9621131 6.71653289,13.0262568 6.75434421,13.0767511 C6.78539338,13.1182034 6.83722462,13.1463086 6.88981705,13.169288 C6.92578736,13.1850108 6.96432446,13.199265 7.0051628,13.1998121 C7.14447696,13.2016839 7.36488365,13.1922819 7.38920609,13.0446433 C7.39904837,12.9848046 7.37040665,12.9249658 7.33250682,12.8730605 C7.2946247,12.8211408 7.24707733,12.7739869 7.21310733,12.7203106 C7.13946732,12.6040311 7.13682973,12.469466 7.15086736,12.342028 C7.16511741,12.2127182 7.16931276,12.0801977 7.23158814,11.9585045 C7.25891992,11.9050874 7.29258898,11.874045 7.33749877,11.8329095 C7.37888587,11.7949991 7.42462765,11.7225908 7.38449738,11.6738675 C7.3552184,11.6383185 7.24665248,11.6165197 7.19864486,11.6083703 C7.11153368,11.5935978 7.0262635,11.5979893 6.94439209,11.6246546 C6.86788436,11.6495634 6.78610146,11.655985 6.70814218,11.679454 C6.65841747,11.6944137 6.60387783,11.721295 6.60019583,11.7643167 C6.59709799,11.8003408 6.63135122,11.8302602 6.6605948,11.8574439 C6.72851709,11.920551 6.7827735,11.9922826 6.81762859,12.0713572 C6.84694298,12.1377903 6.88563939,12.2126318 6.89415402,12.28265 C6.89705714,12.306551 6.89973013,12.3303943 6.90165964,12.3541944" id="Fill-3" fill="#006E81"></path>
                        <path d="M12.580819,5.62679429 C12.6914328,5.54154366 12.8256066,5.48639336 12.9539593,5.43489378 C13.0519004,5.39560172 13.1620352,5.35607878 13.260049,5.39518326 C13.3209882,5.41949729 13.3717805,5.47281502 13.4373505,5.47640801 C13.5045607,5.48008758 13.5648903,5.42622153 13.5869259,5.36300504 C13.6089616,5.29977411 13.6,5.23002097 13.5831372,5.16524607 C13.5563402,5.06231905 13.5100769,4.96444243 13.4474828,4.87823943 C13.4207148,4.84137156 13.3859339,4.80388321 13.3403383,4.80027579 C13.2947718,4.79666836 13.2535892,4.82897645 13.2276632,4.86639265 C13.2017081,4.90380885 13.1859145,4.94742982 13.1597997,4.98471615 C13.1314495,5.02519144 13.0920233,5.05669147 13.0510875,5.08454078 C12.9164493,5.17612606 12.807679,5.23000654 12.6419469,5.24511443 C12.4628599,5.26143441 12.2709406,5.27521477 12.1143973,5.18720806 C12.0902132,5.17361529 12.0630823,5.15713658 12.0366047,5.16552023 C11.9923301,5.17956032 11.9956834,5.24240165 12.0081528,5.28691726 C12.0474048,5.42705845 12.0784115,5.5339825 12.0654195,5.67630258 C12.0567387,5.77145199 12.0715163,5.96838847 12.1892576,5.99752202 C12.3172329,6.02906534 12.4471533,5.75034134 12.5195604,5.67976571 C12.5389541,5.66086281 12.5594511,5.64327301 12.580819,5.62679429" id="Fill-5" fill="#006E81"></path>
                        <path d="M2.55055932,8.63517147 C2.42518098,8.73430443 2.27361425,8.79774282 2.12862397,8.85693875 C2.01799861,8.90211017 1.89364784,8.94741894 1.78377113,8.90032468 C1.71545234,8.87107008 1.65884785,8.80775378 1.58511229,8.80280934 C1.5095271,8.79774282 1.44106151,8.86047921 1.41560711,8.93464581 C1.39013803,9.0088124 1.39947424,9.09100609 1.41776501,9.16741599 C1.44683059,9.28884472 1.49787151,9.40455071 1.56737935,9.50667476 C1.59712019,9.55035064 1.63585962,9.5948506 1.68713542,9.59959665 C1.73836717,9.60432745 1.78506294,9.56675581 1.8146423,9.52300362 C1.84422167,9.47926669 1.8624684,9.42809785 1.89225328,9.38449826 C1.92457772,9.33715983 1.96927707,9.30053435 2.01564988,9.2681971 C2.16811206,9.16189165 2.29108296,9.09965886 2.4777339,9.08369625 C2.67943141,9.06643649 2.89555896,9.05232042 3.07078918,9.15758816 C3.09785834,9.17385597 3.12821573,9.19354217 3.15808868,9.1839585 C3.20807267,9.16793485 3.2049606,9.09393612 3.19139666,9.04142434 C3.14870843,8.8760603 3.11496006,8.74987026 3.13106357,8.5825376 C3.14183838,8.47066202 3.12729091,8.23871591 2.99511592,8.20314341 C2.85141745,8.16462562 2.70227285,8.49123333 2.62005249,8.57348806 C2.59801843,8.59553965 2.57478064,8.61601939 2.55055932,8.63517147" id="Fill-7" fill="#006E81"></path>
                        <path d="M10.9866539,2.82142522 C11.044455,2.67783309 11.1413455,2.54833207 11.2347405,2.42562926 C11.3060176,2.33200233 11.388733,2.23103463 11.5035914,2.20995381 C11.5750024,2.1968521 11.6528837,2.2165286 11.7171699,2.18154816 C11.7830923,2.14567407 11.8105203,2.06053692 11.796375,1.98910789 C11.7822147,1.91767887 11.7349892,1.8582983 11.682989,1.80817351 C11.6003927,1.72852599 11.5020892,1.6649165 11.394757,1.6216697 C11.3488553,1.60317411 11.294981,1.58877979 11.2496593,1.61209476 C11.2043525,1.63539377 11.1831419,1.68938046 11.1792598,1.73918609 C11.1753776,1.78899172 11.1845847,1.83863776 11.1804646,1.88842743 C11.1759874,1.94247795 11.1560114,1.99469327 11.1325548,2.04441911 C11.055447,2.20791116 10.9819983,2.32139011 10.8328697,2.43223596 C10.6717376,2.55203438 10.4969956,2.67695539 10.2993623,2.6869612 C10.2688404,2.68850914 10.2339158,2.6890996 10.2134043,2.71235074 C10.1791193,2.75122498 10.2171973,2.80746177 10.253758,2.84138897 C10.3688396,2.9482293 10.4576683,3.02913752 10.5243195,3.16851668 C10.5688974,3.26169677 10.692264,3.43544995 10.8203307,3.39360748 C10.9594639,3.34801482 10.9282132,3.01396124 10.9578426,2.90629108 C10.9657854,2.8774386 10.9754983,2.84917658 10.9866539,2.82142522" id="Fill-9" fill="#006E81"></path>
                        <path d="M4.26085818,11.119508 C4.22445872,11.2489713 4.15009005,11.3714018 4.07816149,11.4875945 C4.023267,11.576268 3.95862766,11.6726315 3.85458924,11.7050891 C3.78991881,11.7252699 3.71530147,11.7183901 3.65984747,11.7562903 C3.60297914,11.7951538 3.58774794,11.871046 3.60944463,11.9300138 C3.63114132,11.9889817 3.68208813,12.0335171 3.73632985,12.0695828 C3.82251046,12.1268689 3.9213423,12.1685301 4.0261112,12.1917381 C4.07093444,12.2016603 4.12262727,12.2070877 4.16188646,12.1815253 C4.20113012,12.1559629 4.21432531,12.1073607 4.21194738,12.064507 C4.20958499,12.0216379 4.1950998,11.980573 4.19293946,11.937704 C4.19060815,11.8911504 4.20288637,11.8441993 4.21867708,11.7989453 C4.27060304,11.6501115 4.3251556,11.5442844 4.45020686,11.4311034 C4.5853449,11.3088105 4.73249694,11.1804328 4.91463412,11.1469051 C4.94278075,11.1417223 4.97512374,11.1367994 4.99134963,11.1144322 C5.01850157,11.0770365 4.97642927,11.0339993 4.93844452,11.009767 C4.81884852,10.933462 4.72674639,10.8758701 4.64816583,10.7657469 C4.59564927,10.6921174 4.46035581,10.5599328 4.34655699,10.6117303 C4.2229356,10.6681297 4.29198888,10.9483377 4.27741045,11.043677 C4.2735094,11.0692088 4.26789872,11.094496 4.26085818,11.119508" id="Fill-11" fill="#006E81"></path>
                        <path d="M8.4,2.38595931 C8.32577823,2.30869698 8.20485897,2.29933276 8.11337591,2.24210865 C8.02499519,2.18682663 7.97220123,2.09228114 7.9318888,2.00008424 C7.82013228,1.74438987 7.81208783,1.46141582 7.94884347,1.23280543 C7.97431155,1.19021479 8.0052448,1.1485124 8.01049353,1.09831898 C8.01595871,1.04621358 7.99227628,0.99206069 7.95818658,0.947497847 C7.89727603,0.867856821 7.80061638,0.812288763 7.70143156,0.801810473 C7.60224675,0.791332183 7.5027012,0.826801797 7.44177261,0.896145193 C7.42869587,0.911034602 7.41715226,0.927760723 7.41248071,0.947136527 C7.40277687,0.98740869 7.4239161,1.03052625 7.44328771,1.07004566 C7.51249522,1.21132192 7.62082474,1.41876496 7.61442164,1.57258205 C7.60879414,1.70747498 7.54191338,1.8522741 7.47313875,1.96259725 C7.42485401,2.0400553 7.36863305,2.13624179 7.42103019,2.21987239 C7.44108721,2.25187935 7.47413077,2.27497374 7.50780563,2.29385273 C7.69340515,2.39800332 7.91267952,2.40054762 8.11941826,2.39994542 C8.16562876,2.39980992 8.21703387,2.39758178 8.24619951,2.36571032 C8.27536515,2.33383885 8.4,2.38595931 8.4,2.38595931" id="Fill-13" fill="#006E81"></path>
                        <path d="M4.74873284,2.41515644 C4.71855183,2.30547559 4.70249193,2.1873369 4.74027544,2.07896822 C4.76488433,2.00838167 4.81149163,1.93123424 4.77549425,1.86599624 C4.74088608,1.80331128 4.65064838,1.79401194 4.57622631,1.80284061 C4.38672866,1.82533303 4.20623798,1.91660062 4.07985024,2.05387997 C4.02309101,2.11552375 3.97549142,2.20323991 4.01385504,2.2754952 C4.04751671,2.33892183 4.1298924,2.35898957 4.19810117,2.3880714 C4.3621045,2.45800186 4.47426427,2.60940138 4.53256537,2.77121273 C4.59088173,2.93302408 4.60231602,3.10667354 4.61426934,3.27786981 C4.62689438,3.45862215 4.65767077,3.66701577 4.82075813,3.75905355 C5.09370009,3.91303463 5.90536619,3.60457328 5.47806905,3.30208803 C5.13862812,3.06178855 4.86113687,2.82384242 4.74873284,2.41515644" id="Fill-15" fill="#006E81"></path>
                        <path d="M13.2056628,8.01246348 C13.2651006,8.03341998 13.323589,8.06361228 13.3596152,8.11560853 C13.3830675,8.14947791 13.4020707,8.19561382 13.4434955,8.19972181 C13.483306,8.2036718 13.5177995,8.16486134 13.5388374,8.12760214 C13.5924019,8.03273052 13.6120156,7.92011985 13.5927817,7.81789407 C13.5841414,7.77200235 13.5607027,7.72204572 13.5153444,7.71678864 C13.4755338,7.71216356 13.4388158,7.74390713 13.4028439,7.76621381 C13.3163051,7.81986188 13.210573,7.82356769 13.1182559,7.79903465 C13.0259388,7.77448725 12.9440388,7.72448754 12.8630884,7.67550764 C12.777594,7.62378429 12.6735982,7.57167313 12.5774288,7.61785212 C12.4165181,7.69515705 12.2824643,8.16908424 12.5619794,8.06761972 C12.7840234,7.98702553 12.9842156,7.93435419 13.2056628,8.01246348" id="Fill-17" fill="#006E81"></path>
                        <path d="M10.0987368,11.6828223 C10.1510846,11.8884436 10.251799,12.0786049 10.4215554,12.1871987 C10.4892383,12.2304896 10.5738762,12.2660219 10.5953618,12.3425749 C10.6121109,12.4022742 10.5819762,12.4741576 10.5294773,12.5217015 C10.4769922,12.5692454 10.4057124,12.5941308 10.3375078,12.5990878 C10.2898826,12.6025649 10.2414749,12.5965447 10.2043249,12.5733403 C10.1496706,12.5392018 10.1275672,12.4737121 10.1201674,12.4094726 C10.1090196,12.3126749 10.111683,12.2280902 10.0656916,12.1428589 C9.98057316,11.9851407 9.89545471,11.8274225 9.81033626,11.6697043 C9.75539368,11.5678922 9.69796618,11.4632353 9.60160386,11.3956767 C9.55514566,11.3631043 9.50066985,11.3400004 9.45835775,11.3029452 C9.41604564,11.2658756 9.38674842,11.208777 9.40607854,11.1511754 C9.45979927,10.9911296 10.013687,10.6650321 10.1174628,10.8607107 C10.1588139,10.9386862 10.0551342,11.1552416 10.0527042,11.2552145 C10.049423,11.3905042 10.0624653,11.540363 10.0987368,11.6828223" id="Fill-19" fill="#006E81"></path>
                        <g id="Group-23">
                            <mask id="mask-6" fill="white">
                                <use xlink:href="#path-5"></use>
                            </mask>
                            <g id="Clip-22"></g>
                            <path d="M14.77544,6.29934658 C14.7411114,6.20423058 14.6633686,6.12732555 14.5768686,6.12021501 C14.46594,6.11109527 14.3752543,6.20833446 14.2833686,6.27864193 C14.0529114,6.45498057 13.7525257,6.49667487 13.4574114,6.46494104 C13.2727971,6.44507711 12.9881971,6.40735845 12.8292114,6.31140173 C12.6897114,6.22720091 12.6443257,6.00976646 12.6178257,5.8631952 C12.5711971,5.60529191 12.4879829,5.34955456 12.3946686,5.10506013 C12.28804,4.82573972 12.0838257,4.58976654 12.1741686,4.28218919 C12.3116114,3.81427548 12.8653971,3.4800514 13.3251686,3.4267437 C13.42654,3.41498779 13.52934,3.41390482 13.6293114,3.39347091 C13.6639257,3.38640311 13.69984,3.37602941 13.7245543,3.35082189 C13.7473686,3.32753807 13.7573829,3.29492076 13.7656971,3.26344342 C13.8091114,3.09907443 13.82634,2.91947262 13.7602829,2.76278416 C13.7139971,2.65301958 13.6171543,2.55706286 13.50104,2.52369033 C13.3918971,2.49231273 13.2190686,2.47981585 13.1284686,2.55891531 C13.0848114,2.5970472 13.0574829,2.64989892 13.0288686,2.70027122 C12.7797114,3.13887353 12.3783686,3.43375449 11.90894,3.60160039 C11.4844257,3.753387 11.2976971,3.35327282 11.0234686,3.10557224 C10.72684,2.83763724 10.3994257,2.60357352 10.04934,2.41013536 C9.80129714,2.27308283 9.60336857,2.23234326 9.57405429,1.90595645 C9.55285429,1.66985503 9.62518286,1.4273413 9.70252571,1.20695718 C9.76985429,1.01510073 9.86769714,0.83358948 9.99358286,0.67358086 C10.1085829,0.527408589 10.3014686,0.421220662 10.1525686,0.214829634 C10.0954114,0.135601926 10.0057829,0.0853863793 9.91361143,0.0525695789 C9.76265429,-0.00116561627 9.59171143,-0.0132635162 9.44358286,0.0478244662 C9.32465429,0.0969000462 9.21941143,0.207918584 9.25056857,0.341878958 C9.28746857,0.500476869 9.34395429,0.611295912 9.31989714,0.783801421 C9.29851143,0.937141234 9.24295429,1.0833705 9.18779714,1.22807507 C9.11925429,1.40787636 9.07341143,1.58365928 8.92014,1.71013862 C8.74309714,1.85623964 8.55811143,1.89432879 8.34822571,1.83238583 C8.09601143,1.75796023 7.79435429,1.76330383 7.53316857,1.76330383 C7.20821143,1.76330383 6.85856857,1.87423687 6.54311143,1.81919071 C6.33421143,1.78274027 6.28639714,1.52080435 6.22666857,1.34001983 C6.14669714,1.09799058 6.13546857,0.835242432 6.16639714,0.583665962 C6.17639714,0.502243817 6.19026857,0.418798232 6.17095429,0.339057539 C6.10051143,0.048280453 5.70631143,0.00252502694 5.50241143,0.157104554 C5.34225429,0.278525291 5.21544,0.494264048 5.30216857,0.675333559 C5.36651143,0.809678672 5.52296857,0.872576352 5.61765429,0.987670272 C5.72691143,1.12049068 5.74148286,1.30520808 5.74366857,1.47700111 C5.74702571,1.73888004 5.69466857,2.15010889 5.40241143,2.25703779 C5.06314,2.38116595 4.76305429,2.54477972 4.46632571,2.76125945 C4.28024,2.89700102 4.10326857,3.04508274 3.93674,3.20407964 C3.79154,3.34271388 3.71046857,3.49160782 3.50441143,3.55322304 C3.30156857,3.61386928 3.17044,3.49209231 3.01112571,3.38856905 C2.80228286,3.25285598 2.63341143,3.0722852 2.53985429,2.83971768 C2.52469714,2.80207027 2.50812571,2.76393837 2.48941143,2.72707469 C2.41219714,2.57510284 2.29835429,2.44484736 2.09666857,2.46023691 C1.98122571,2.46904316 1.87605429,2.53423502 1.79591143,2.61758086 C1.75192571,2.66335054 1.71352571,2.71590301 1.69292571,2.77589378 C1.64214,2.9238615 1.71246857,3.09444331 1.83336857,3.19401943 C1.92636857,3.27063946 2.03865429,3.3056507 2.15528286,3.32725308 C2.27555429,3.34952518 2.31998286,3.40353112 2.40579714,3.49307553 C2.57138286,3.66590878 2.71922571,3.85270662 2.85952571,4.04590253 C3.07359714,4.3407265 2.91681143,4.82284705 2.66692571,5.03345596 C2.60676857,5.08417024 2.54574,5.13544026 2.47465429,5.16928303 C2.35115429,5.22809107 2.24881143,5.18975968 2.12484,5.16131751 C1.97096857,5.12599278 1.81708286,5.09066805 1.66319714,5.05534332 C1.53014,5.02480646 1.44565429,4.94254359 1.33499714,4.86368637 C1.26155429,4.81134763 1.17234,4.77365747 1.08335429,4.80037545 C1.02288286,4.81852942 0.969025714,4.86491183 0.925697143,4.91937376 C0.86364,4.99736175 0.819068571,5.09733686 0.81634,5.19838068 C0.813611429,5.29945301 0.857968571,5.39928562 0.93594,5.43731777 C1.03592571,5.48609411 1.15586857,5.42844028 1.26711143,5.39630746 C1.54608286,5.31574029 1.84106857,5.38591951 2.10434,5.5226158 C2.37605429,5.66367247 2.42916857,5.9390315 2.40765429,6.22038961 C2.39126857,6.43483166 2.35548286,6.88880927 2.11788286,6.98271405 C1.99412571,7.03161864 1.85498286,7.09542829 1.72341143,7.11277004 C1.67852571,7.11868362 1.63369714,7.12422671 1.58892571,7.12864408 C1.39038286,7.14823726 1.19104,7.13004054 0.994154286,7.10272408 C0.826968571,7.07952575 0.71234,6.94593587 0.542111429,6.90607977 C0.43354,6.88064426 0.312697143,6.88691408 0.219425714,6.94787381 C0.142825714,6.99791836 0.09244,7.07892727 0.0517685714,7.16076265 C0.0239542857,7.21673503 -0.000988571429,7.2765833 -4.18538456e-06,7.33903924 C0.00349714286,7.55224157 0.0323257143,7.88874559 0.311854286,7.91684577 C0.42514,7.92824544 0.536511429,7.88073732 0.632468571,7.81959234 C0.728411429,7.75844736 0.814925714,7.68281055 0.914382857,7.6275364 C1.12989714,7.50776861 1.38339714,7.49544272 1.62431143,7.50905107 C1.85534,7.52208945 2.17371143,7.50033033 2.33386857,7.71002726 C2.43684,7.84485686 2.44655429,8.04636028 2.48612571,8.20515768 C2.54058286,8.42371786 2.60938286,8.63872989 2.69206857,8.84831282 C2.78111143,9.07404054 2.92345429,9.27369151 3.01805429,9.49676881 C3.11884,9.73443768 3.10948286,9.91718864 2.99831143,10.1491292 C2.98066857,10.1859359 2.96081143,10.2214458 2.93911143,10.2558016 C2.82684,10.433608 2.66562571,10.5808204 2.51075429,10.7198394 C2.39258286,10.8259276 2.25729714,10.9385848 2.09839714,10.9334407 C1.99961143,10.9302346 1.90014,10.8806603 1.80554,10.9092449 C1.70856857,10.9385421 1.65115429,11.0459697 1.65274,11.1470278 C1.65432571,11.2480859 1.70314,11.3425037 1.76055429,11.425764 C1.85176857,11.5580714 1.96792571,11.6732223 2.10111143,11.7634365 C2.15806857,11.8020101 2.22668286,11.8373491 2.29304,11.8190384 C2.35936857,11.8007561 2.40086857,11.7337403 2.41816857,11.6673088 C2.43548286,11.6008914 2.43524,11.5308547 2.45285429,11.4645086 C2.47196857,11.3925055 2.51141143,11.3275416 2.55489714,11.2669808 C2.69786857,11.0678428 2.82381143,10.9354927 3.05039714,10.82892 C3.29524,10.7137548 3.55956857,10.5956115 3.82656857,10.6400987 C3.84571143,10.6432906 3.86605429,10.6468958 3.88568286,10.6474373 C3.95318286,10.6493325 4.16268286,10.9013364 4.22298286,10.951039 C4.35291143,11.0581816 4.48804,11.1590545 4.62776857,11.2531587 C4.91688286,11.4478936 5.20639714,11.4969264 5.23444,11.8897876 C5.26674,12.3421407 5.12098286,12.7969163 4.77842571,13.1075146 C4.71461143,13.1653964 4.64274,13.2196731 4.60639714,13.2977038 C4.56868286,13.3786842 4.57554,13.4744842 4.60408286,13.5591125 C4.65509714,13.7103576 4.77569714,13.8373642 4.92548286,13.8934221 C5.07526857,13.9494657 5.25134,13.9323235 5.38578286,13.8458142 C5.41462571,13.827247 5.44209714,13.8051316 5.46026857,13.7760625 C5.49804,13.7156157 5.48899714,13.6384542 5.48074,13.567705 C5.45118286,13.3148176 5.39725429,12.9408229 5.49341143,12.6978817 C5.56875429,12.5075499 5.76525429,12.1917078 5.95406857,12.1036169 C6.18589714,11.9954483 6.38568286,11.962489 6.62086857,12.0462623 C6.89691143,12.1446129 7.24305429,12.1377731 7.53316857,12.1377731 C7.74625429,12.1377731 7.98511143,12.0852064 8.20316857,12.1321731 C8.37951143,12.1701482 8.47134,12.324685 8.57695429,12.4622648 C8.72612571,12.6565721 8.80426857,12.8956945 8.83004,13.1371537 C8.85535429,13.3742526 8.76542571,13.5981421 8.77339714,13.8311941 C8.77588286,13.9038813 8.79958286,13.9757277 8.84085429,14.03569 C8.87996857,14.0925173 8.93659714,14.139484 9.00355429,14.156555 C9.08558286,14.1774734 9.17255429,14.1519381 9.24875429,14.1151742 C9.32496857,14.0784102 9.39584,14.0302039 9.47541143,14.0014055 C9.64669714,13.9393913 9.76054,13.7359356 9.66788286,13.5639004 C9.63202571,13.4972836 9.57252571,13.447182 9.51736857,13.3953135 C9.40936857,13.2937139 9.31335429,13.1794323 9.23198286,13.0555891 C9.13519714,12.9083053 9.12245429,12.6962002 9.08778286,12.5238087 C9.04676857,12.3198686 9.00101143,12.003485 9.21135429,11.8574838 C9.29708286,11.7979917 9.42798286,11.7835711 9.52636857,11.7427888 C9.67939714,11.6793497 9.82939714,11.6086432 9.97565429,11.5308832 C10.2157971,11.4032069 10.5604257,11.0527668 10.8482971,11.1524854 C11.1547686,11.2586448 11.4456114,11.5025978 11.6222971,11.769521 C11.6966971,11.8818933 11.7591971,12.0086434 11.7601971,12.143302 C11.7608543,12.2309939 11.7403971,12.3337335 11.8040257,12.3942515 C11.8651686,12.4524183 11.96554,12.4313004 12.0419829,12.3954057 C12.2366543,12.3040088 12.3952971,12.1386566 12.4782829,11.9406586 C12.5155543,11.8517554 12.5329971,11.7368325 12.4641686,11.6692609 C12.4037543,11.6099542 12.3076686,11.6162382 12.2233829,11.607489 C12.0206543,11.5864281 11.8423257,11.4559589 11.7177686,11.295024 C11.5580829,11.08869 11.37054,10.8098968 11.39564,10.5307331 C11.4186686,10.2744828 11.67004,10.1032455 11.8089543,9.90369428 C12.0070257,9.61918702 12.1258971,9.3553274 12.5002114,9.29023529 C12.54204,9.282968 12.58394,9.27827988 12.6258257,9.27574345 C12.8426543,9.26266233 13.0594114,9.30753428 13.2655257,9.35205 C13.4227971,9.38602101 13.5951829,9.43008074 13.6773686,9.56275865 C13.7284543,9.64523526 13.7393543,9.75559832 13.8159686,9.81594532 C13.8945114,9.87781703 14.0198257,9.86141576 14.1073686,9.80062702 C14.1949114,9.73983828 14.2508971,9.64443729 14.2924257,9.54856606 C14.3584114,9.39623797 14.3957971,9.23366442 14.4020543,9.07188885 C14.4047257,9.00270711 14.3982114,8.92591608 14.3459971,8.88255458 C14.2938114,8.83920734 14.21254,8.84479317 14.1449829,8.86978695 C14.0774257,8.89476648 14.0162829,8.93620428 13.9486257,8.96088457 C13.8751971,8.98767379 13.79684,8.99372986 13.72014,8.99391511 C13.4679114,8.99449934 13.2834114,8.96966231 13.0665543,8.8475291 C12.8613257,8.73195069 12.6459829,8.60552835 12.5239257,8.4119762 C12.4998543,8.3738158 12.6035829,8.107947 12.6152971,8.05405505 C12.6436257,7.92371408 12.6668971,7.79229013 12.68504,7.66016795 C12.7110257,7.47101892 12.6928114,7.2403181 12.7823971,7.0659459 C12.8694686,6.89647555 13.1139971,6.87595614 13.2889257,6.85024989 C13.5388971,6.8135002 13.7888829,6.77675051 14.0388686,6.74000083 C14.17394,6.72015115 14.28264,6.76609182 14.4144829,6.79937886 C14.5019686,6.82146572 14.5988257,6.82418739 14.6719543,6.76698955 C14.7216686,6.72813092 14.7548971,6.66537574 14.7753971,6.59891566 C14.80474,6.50375691 14.8097686,6.39446258 14.77544,6.29934658" id="Fill-21" fill="#00C1AE" mask="url(#mask-6)"></path>
                        </g>
                        <path d="M5.99849524,3.81487673 C5.99751524,3.8319838 5.99614662,3.84900009 5.99467663,3.86575699 C5.99188871,3.89792193 5.98883044,3.93091693 5.97159601,3.96012477 C5.95578088,3.98697212 5.9291182,4.00869643 5.90294552,4.02986303 C5.8489443,4.0735451 5.79708894,4.12945762 5.7282188,4.15805588 C5.66066659,4.18613535 5.58312854,4.2 5.5070267,4.2 C5.36061851,4.2 5.21880618,4.1382511 5.10668099,4.06746229 C5.06962696,4.04407786 5.03460052,4.01602433 5.02008642,3.98033162 C5.00268303,3.93749259 5.01743367,3.89099609 5.01415575,3.84606893 C5.01175645,3.81302205 4.99954028,3.78059772 5.00001338,3.74749896 C5.0008582,3.68966692 5.04037912,3.63640022 5.08765553,3.59229015 C5.21608584,3.47246278 5.41274422,3.40024731 5.6113288,3.4 C5.63794079,3.39996197 5.66485692,3.4011941 5.69033684,3.40725096 C5.72230502,3.4148642 5.75060666,3.42971454 5.77838451,3.44437034 C5.83054401,3.47190509 5.88366661,3.50010129 5.92220753,3.53923097 C5.99710972,3.61523361 6.00412177,3.71670881 5.99849524,3.81487673" id="Fill-24" fill="#006E81"></path>
                        <path d="M10.7984952,6.61487673 C10.7975152,6.6319838 10.7961466,6.64900009 10.7946766,6.66575699 C10.7918887,6.69792193 10.7888304,6.73091693 10.771596,6.76012477 C10.7557809,6.78697212 10.7291182,6.80869643 10.7029455,6.82986303 C10.6489443,6.8735451 10.5970889,6.92945762 10.5282188,6.95805588 C10.4606666,6.98613535 10.3831285,7 10.3070267,7 C10.1606185,7 10.0188062,6.9382511 9.90668099,6.86746229 C9.86962696,6.84407786 9.83460052,6.81602433 9.82008642,6.78033162 C9.80268303,6.73749259 9.81743367,6.69099609 9.81415575,6.64606893 C9.81175645,6.61302205 9.79954028,6.58059772 9.80001338,6.54749896 C9.8008751,6.48966692 9.84037912,6.43640022 9.88765553,6.39227718 C10.0160858,6.27246278 10.2127442,6.20024731 10.4113288,6.2 C10.4379408,6.19996197 10.4648569,6.2011941 10.4903368,6.20725096 C10.522305,6.2148642 10.5506067,6.22971454 10.5783845,6.24437034 C10.630544,6.27190509 10.6836666,6.30010129 10.7222075,6.33923097 C10.7971097,6.41523361 10.8041218,6.51670881 10.7984952,6.61487673" id="Fill-26" fill="#006E81"></path>
                        <path d="M7.5990969,5.81487699 C7.59849873,5.83198588 7.59768692,5.84900366 7.59681813,5.86576636 C7.59513754,5.89792524 7.59330028,5.93092224 7.58296036,5.96012942 C7.57347498,5.98696796 7.55746661,6.00868659 7.54177158,6.02985861 C7.50937031,6.07355095 7.47825084,6.1294509 7.43693388,6.15805681 C7.39640025,6.18611611 7.34988484,6.2 7.30422397,6.2 C7.21637736,6.2 7.13129376,6.13825132 7.06401305,6.06746536 C7.04178079,6.04408868 7.02075913,6.01602938 7.01205708,5.98033576 C7.00160322,5.93748156 7.0104477,5.89100151 7.0084965,5.84607019 C7.00705802,5.81301852 6.99972323,5.78060456 7,5.74749823 C7.0005208,5.68966692 7.02423426,5.63640891 7.05259071,5.59229751 C7.12965589,5.47246243 7.24765349,5.40025528 7.36680471,5.4 C7.38277035,5.39998198 7.39890689,5.40120274 7.41420314,5.40725189 C7.43338754,5.41486798 7.45036439,5.42971755 7.4670279,5.44438491 C7.49833251,5.4718976 7.53019257,5.50012088 7.55333634,5.53923992 C7.59827085,5.6152369 7.60247233,5.71670589 7.5990969,5.81487699" id="Fill-28" fill="#006E81"></path>
                        <path d="M9.39909261,4.11116429 C9.39850993,4.12398823 9.39767233,4.13675976 9.39681652,4.1493391 C9.39512311,4.17344951 9.39328404,4.19818889 9.38295971,4.22009791 C9.37345477,4.24024233 9.35746754,4.25652559 9.34177165,4.27240702 C9.30936018,4.30516572 9.27824152,4.34709687 9.23694421,4.36855164 C9.19639345,4.38960457 9.14987024,4.4 9.10422105,4.4 C9.01636412,4.4 8.93129311,4.35368355 8.86401199,4.30060571 C8.84179739,4.28306452 8.82076635,4.26202906 8.81206259,4.23526301 C8.80161081,4.2031158 8.81046023,4.16826053 8.80849369,4.13455837 C8.8070552,4.10976658 8.7997171,4.08544652 8.8,4.06061979 C8.80051828,4.01725599 8.824226,3.9772991 8.85259514,3.94422591 C8.92965433,3.85435349 9.04764665,3.80019242 9.16680433,3.8 C9.18277335,3.79998277 9.19890625,3.80090875 9.21420155,3.80545129 C9.23337531,3.81116441 9.25036401,3.82229363 9.26702497,3.83328309 C9.29832571,3.85393418 9.33019092,3.87509193 9.35331596,3.90442627 C9.39827322,3.96143515 9.40247943,4.03754018 9.39909261,4.11116429" id="Fill-30" fill="#006E81"></path>
                        <path d="M5.3990971,9.91116093 C5.39850616,9.92399292 5.39768195,9.9367503 5.3968111,9.94932863 C5.39513158,9.97344083 5.39329656,9.99819463 5.38295512,10.0200985 C5.37346898,10.0402268 5.35746695,10.0565205 5.3417604,10.0724113 C5.30935202,10.1051627 5.27824994,10.1471054 5.23693081,10.1685467 C5.19638924,10.1896001 5.14987607,10.2 5.1042182,10.2 C5.01637035,10.2 4.93127504,10.1536855 4.86400122,10.1005969 C4.84177878,10.0830648 4.82075377,10.0620263 4.81204518,10.0352433 C4.80159488,10.0031185 4.81044343,9.96824835 4.808484,9.93455693 C4.8070533,9.90977329 4.79971321,9.8854522 4.8,9.86062379 C4.80050631,9.81726362 4.82422165,9.77730541 4.85258676,9.74422574 C4.92965773,9.65435707 5.0476435,9.60019415 5.1667956,9.6 C5.18276653,9.59998526 5.19890851,9.60091035 5.21419519,9.60544631 C5.23336962,9.61116102 5.25036691,9.62229202 5.26702208,9.63328874 C5.29832633,9.65392436 5.33019042,9.67508222 5.35333038,9.70443166 C5.39827289,9.76142955 5.40247168,9.83752622 5.3990971,9.91116093" id="Fill-32" fill="#006E81"></path>
                        <path d="M7.19909176,8.31116093 C7.19850083,8.32399292 7.19769218,8.3367503 7.19680578,8.34932863 C7.19512628,8.37344083 7.19329127,8.39819463 7.18294992,8.42009853 C7.17346387,8.44022685 7.15746199,8.45652048 7.14175557,8.47239634 C7.10936303,8.50516267 7.07824567,8.54710536 7.03692692,8.56854671 C6.99640126,8.58960012 6.9498885,8.6 6.90421549,8.6 C6.81636842,8.6 6.73127387,8.55368548 6.66400065,8.50059687 C6.64177841,8.48306479 6.62075358,8.4620263 6.61204508,8.43524326 C6.60161042,8.40311853 6.61044333,8.36824835 6.60848392,8.33455693 C6.60705324,8.30977329 6.59971321,8.2854522 6.6,8.2606238 C6.6005063,8.21726362 6.62422144,8.17730541 6.65258629,8.14422574 C6.72965658,8.05434215 6.8476413,8.00019415 6.96679233,8 C6.98276311,7.99998526 6.99890495,8.00089543 7.01419149,8.00544631 C7.03338131,8.01116102 7.0503629,8.02229203 7.06701792,8.03328874 C7.09832189,8.05392436 7.1301857,8.07508222 7.15332544,8.10443166 C7.19826756,8.16142955 7.20248186,8.23752622 7.19909176,8.31116093" id="Fill-34" fill="#006E81"></path>
                        <path d="M11.5990971,8.51116093 C11.5985062,8.52399292 11.597682,8.5367503 11.5968111,8.54932863 C11.5951316,8.57344083 11.5932966,8.59819463 11.5829551,8.62009853 C11.573469,8.64022685 11.557467,8.65652048 11.5417604,8.67239634 C11.509352,8.70516267 11.4782499,8.74710536 11.4369308,8.76854671 C11.3964048,8.78960012 11.3498761,8.8 11.3042182,8.8 C11.2163704,8.8 11.131275,8.75368548 11.0640012,8.70059687 C11.0417788,8.68306479 11.0207538,8.6620263 11.0120452,8.63524326 C11.0016104,8.60311853 11.0104434,8.56824835 11.008484,8.53455693 C11.0070533,8.50977329 10.9997132,8.4854522 11,8.4606238 C11.0005063,8.41726362 11.0242217,8.37730541 11.0525868,8.34422574 C11.1296577,8.25434215 11.2476435,8.20019415 11.3667956,8.2 C11.3827665,8.19998526 11.3989085,8.20089543 11.4141952,8.20544631 C11.4333852,8.21116102 11.4503669,8.22229203 11.4670221,8.23328874 C11.4983263,8.25392436 11.5301904,8.27508222 11.5533304,8.30443166 C11.5982729,8.36142955 11.6024717,8.43752622 11.5990971,8.51116093" id="Fill-36" fill="#006E81"></path>
                        <path d="M4.19879131,7.21488031 C4.19801093,7.23199935 4.1969092,7.24901562 4.19574627,7.26576761 C4.19351222,7.29792087 4.19106395,7.33092568 4.1772771,7.36014257 C4.16462257,7.38698099 4.14329198,7.40869545 4.12234392,7.42986669 C4.07914717,7.47355988 4.0376642,7.52946838 3.98257801,7.55806863 C3.92853234,7.58614033 3.86651446,7.6 3.80562892,7.6 C3.68849425,7.6 3.5750473,7.53824813 3.48534862,7.46746691 C3.45570919,7.44407872 3.42767644,7.41603638 3.41607773,7.3803448 C3.40215317,7.33750315 3.41395079,7.29100572 3.4113342,7.24607925 C3.40940618,7.2130304 3.39962838,7.18059818 3.40001093,7.14750529 C3.4006842,7.08967347 3.43229755,7.03640771 3.47012341,6.99228874 C3.57287446,6.87247013 3.73019144,6.8002501 3.8890692,6.8 C3.91035389,6.79997114 3.93188341,6.80120442 3.9522653,6.80726802 C3.97784978,6.81487322 4.00048102,6.82973126 4.02269912,6.84438375 C4.06444221,6.87191222 4.10693509,6.90011606 4.13776805,6.9392432 C4.19768959,7.01523647 4.20330532,7.11670276 4.19879131,7.21488031" id="Fill-38" fill="#006E81"></path>
                        <path d="M9.39879131,10.0148803 C9.39801093,10.0319994 9.3969092,10.0490156 9.39574627,10.0657676 C9.39351222,10.0979209 9.39106395,10.1309257 9.3772771,10.1601426 C9.36462257,10.186981 9.34329198,10.2086955 9.32234392,10.2298667 C9.27914717,10.2735599 9.2376642,10.3294684 9.18257801,10.3580686 C9.12853234,10.3861403 9.06651446,10.4 9.00562892,10.4 C8.88849425,10.4 8.7750473,10.3382481 8.68534862,10.2674669 C8.65570919,10.2440787 8.62767644,10.2160364 8.61607773,10.1803448 C8.60213786,10.1375031 8.61393549,10.0910057 8.6113342,10.0460792 C8.60940618,10.0130304 8.59962838,9.98059818 8.60001093,9.94750529 C8.6006842,9.88967347 8.63229755,9.83640771 8.67012341,9.79228874 C8.77287446,9.67247013 8.93019144,9.60026478 9.0890692,9.6 C9.11035389,9.59997114 9.13188341,9.60120442 9.1522653,9.60726802 C9.17783448,9.61487322 9.20048102,9.62973126 9.22269912,9.64438375 C9.26444221,9.67191222 9.30693509,9.70011606 9.33776805,9.7392432 C9.39768959,9.81523647 9.40330532,9.91670276 9.39879131,10.0148803" id="Fill-40" fill="#006E81"></path>
                    </g>
                </g>
            </g>
        </g>
    </g>
</svg>